<svg version="1.2" xmlns="http://www.w3.org/2000/svg" viewBox="0 0 500 500" width="800" height="800">
	<title>6478626</title>
	<style>
		.s0 { fill: #ebebeb } 
		.s1 { fill: #ffffff } 
		.s2 { fill: #a6a6a6 } 
		.s3 { fill: none;stroke: #ebebeb;stroke-miterlimit:10 } 
		.s4 { fill: #c7c7c7 } 
		.s5 { fill: #263238 } 
		.s6 { fill: none;stroke: #ffc727;stroke-linecap: round;stroke-linejoin: round;stroke-width: 6 } 
		.s7 { fill: #ffc727 } 
		.s8 { opacity: .1;fill: #000000 } 
		.s9 { fill: #455a64 } 
		.s10 { fill: #d3766a } 
		.s11 { opacity: .2;fill: #000000 } 
		.s12 { fill: #37474f } 
		.s13 { fill: #ff9abb } 
	</style>
	<g id="Background Complete">
		<g id="&lt;Group&gt;">
			<g id="&lt;Group&gt;">
				<g id="&lt;Group&gt;">
					<path id="&lt;Path&gt;" class="s0" d="m78.8 133.3c0 26.1 21.2 47.3 47.3 47.3 26.2 0 47.4-21.2 47.4-47.3 0-26.2-21.2-47.4-47.4-47.4-26.1 0-47.3 21.2-47.3 47.4z"/>
					<path id="&lt;Path&gt;" class="s1" d="m90 133.3c0 19.9 16.2 36.1 36.1 36.1 20 0 36.2-16.2 36.2-36.1 0-20-16.2-36.2-36.2-36.2-19.9 0-36.1 16.2-36.1 36.2z"/>
					<path id="&lt;Path&gt;" class="s0" d="m100.3 133.3c0 14.3 11.6 25.8 25.8 25.8 14.3 0 25.9-11.5 25.9-25.8 0-14.3-11.6-25.8-25.9-25.8-14.2 0-25.8 11.5-25.8 25.8z"/>
					<path id="&lt;Path&gt;" class="s1" d="m111.9 133.3c0 7.9 6.4 14.3 14.2 14.3 7.9 0 14.3-6.4 14.3-14.3 0-7.9-6.4-14.3-14.3-14.3-7.8 0-14.2 6.4-14.2 14.3z"/>
					<path id="&lt;Path&gt;" class="s0" d="m119.7 133.3c0 3.6 2.9 6.4 6.4 6.4 3.6 0 6.5-2.8 6.5-6.4 0-3.6-2.9-6.5-6.5-6.5-3.5 0-6.4 2.9-6.4 6.5z"/>
				</g>
				<g id="&lt;Group&gt;">
					<g id="&lt;Group&gt;">
						<path id="&lt;Path&gt;" class="s2" d="m121.2 129.8l1.5-1.5-61.2-61.2-1.5 1.5z"/>
						<g id="&lt;Group&gt;">
							<path id="&lt;Path&gt;" class="s2" d="m118.1 131.1l8 2.2-2.1-8z"/>
						</g>
					</g>
					<path id="&lt;Path&gt;" class="s2" d="m50.5 63.9l11.5 11.5 9 2.7-2.8-9-11.4-11.5 2.7 9z"/>
				</g>
			</g>
			<g id="&lt;Group&gt;">
				<path id="&lt;Path&gt;" class="s0" d="m338.1 55.4l3.3 4.9 5.7 1.7-3.7 4.7 0.3 5.9-5.6-2-5.6 2 0.2-5.9-3.7-4.7 5.8-1.7z"/>
				<path id="&lt;Path&gt;" class="s0" d="m363.7 55.4l3.3 4.9 5.7 1.7-3.7 4.7 0.3 5.9-5.6-2-5.6 2 0.2-5.9-3.7-4.7 5.7-1.7z"/>
				<path id="&lt;Path&gt;" class="s0" d="m389.3 55.4l3.3 4.9 5.7 1.7-3.7 4.7 0.3 5.9-5.6-2-5.6 2 0.2-5.9-3.7-4.7 5.7-1.7z"/>
				<path id="&lt;Path&gt;" class="s0" d="m414.9 55.4l3.3 4.9 5.7 1.7-3.7 4.7 0.3 5.9-5.6-2-5.6 2 0.2-5.9-3.7-4.7 5.7-1.7z"/>
				<path id="&lt;Path&gt;" class="s3" d="m440.5 55.4l3.3 4.9 5.7 1.7-3.7 4.7 0.2 5.9-5.5-2-5.6 2 0.2-5.9-3.7-4.7 5.7-1.7z"/>
				<path id="&lt;Path&gt;" class="s0" d="m440.5 70.6v-15.2l-3.4 4.9-5.7 1.7 3.7 4.7-0.2 5.9z"/>
			</g>
			<g id="xsrjP0 1 ">
				<g id="&lt;Group&gt;">
					<path id="&lt;Path&gt;" fill-rule="evenodd" class="s0" d="m408.5 264.4c-1.3-0.8-2.4-1.9-4.1-1.8-0.6 0.1-0.5-0.5-0.5-0.8q0-9.6-0.1-19.1c0-0.5 0.1-0.9 0.6-1.1 4.8-2.5 6.9-7.3 9.9-11.4 3.1-4.5 4.2-9.2 3.5-14.5-0.3-1.4 0.4-2.1 1.7-2.4 1.6-0.3 3.1 0.1 3.6 1.1 1.4 2.7 2.5 5.4 2.8 8.4 0.3 2.4-0.5 4.8-0.8 7.1-0.2 1.8-0.6 3.5-1 5.3 0.5 0.3 1 0.1 1.4 0.1q8.1 0 16.2 0c2.2 0 3.3 0.6 3.7 2.1 0.4 1.9-0.6 3.8-2.4 4.7-0.4 0.2-1.1 0-1.1 0.7-0.1 0.6 0.7 0.5 1 0.8 2 1.3 1.6 4.1-0.6 5.7-0.6 0.4-1.6 0.2-1.6 1 0 0.6 0.9 0.6 1.4 1.1 1.6 1.5 0.8 4.4-1.6 5.6-0.3 0.1-0.6 0.2-0.9 0.4-0.3 0.1-0.5 0.3 0 0.7 2.3 1.7 2.3 4-0.1 5.7q-0.3 0.2-0.6 0.5c-0.9 0.6-1.9 0.6-2.9 0.6q-12.6 0.1-25.3 0.1c-0.8 0-1.6 0-2.2-0.6z"/>
					<path id="&lt;Path&gt;" fill-rule="evenodd" class="s0" d="m384.5 253.2c-0.1-4 0-8.1-0.1-12.1 0-0.8 0.1-1.2 1.1-1.2q7.4 0 14.8-0.1c1 0 1.1 0.4 1.1 1.2q0 12.2 0.1 24.4c0 1.1-0.3 1.4-1.3 1.4q-7.2-0.1-14.4 0c-1.2 0-1.3-0.4-1.3-1.4 0-4.1 0-8.1 0-12.2z"/>
				</g>
			</g>
		</g>
	</g>
	<g id="Shopping cart">
		<g id="&lt;Group&gt;">
			<g id="&lt;Group&gt;">
				<g id="&lt;Group&gt;">
					<path id="&lt;Compound Path&gt;" class="s4" d="m197.7 446.9h-131c-1.4 0-2.6-1.1-2.6-2.6v-15.5q0 0 0-0.1 0 0 0 0 0-0.1 0-0.1 0.1-0.2 0.1-0.3l15.8-58.2-20.5-127.1-6.9-2.4c-1.3-0.4-2.1-1.8-1.7-3.2 0.4-1.4 1.8-2.2 3.2-1.8l8.5 2.9c0.9 0.3 1.7 1.1 1.8 2.1l20.9 129.2q0 0.4-0.1 0.9l-15.3 55.7 122 8.7c0.6 0 1.3 0.3 1.7 0.8l6 6.7c0.7 0.7 0.9 1.8 0.5 2.8-0.4 0.9-1.4 1.5-2.4 1.5zm-128.3-5.2h122.4l-1.3-1.5-121.1-8.6z"/>
					<path id="&lt;Path&gt;" class="s4" d="m245.7 284.3h-176.6c-1.4 0-2.6-1.2-2.6-2.6 0-1.4 1.2-2.6 2.6-2.6h176.6c1.4 0 2.6 1.2 2.6 2.6 0 1.4-1.2 2.6-2.6 2.6z"/>
					<path id="&lt;Path&gt;" class="s4" d="m82.7 371.1c-0.5 0-0.9-0.4-0.9-0.9 0-0.5 0.3-0.9 0.8-0.9l132.6-7.1 26.1-80.8c0.2-0.4 0.7-0.7 1.1-0.5 0.5 0.1 0.8 0.6 0.6 1.1l-26.3 81.3c-0.1 0.4-0.4 0.6-0.8 0.6l-133.2 7.2q0 0 0 0z"/>
				</g>
				<g id="&lt;Group&gt;">
					<path id="&lt;Path&gt;" class="s4" d="m218.2 356.6h-138c-0.4 0-0.8-0.3-0.8-0.8 0-0.5 0.4-0.9 0.8-0.9h138c0.4 0 0.8 0.4 0.8 0.9 0 0.5-0.4 0.8-0.8 0.8z"/>
					<path id="&lt;Path&gt;" class="s4" d="m221.7 346h-143.1c-0.5 0-0.9-0.4-0.9-0.8 0-0.5 0.4-0.9 0.9-0.9h143.1c0.4 0 0.8 0.4 0.8 0.9 0 0.4-0.4 0.8-0.8 0.8z"/>
					<path id="&lt;Path&gt;" class="s4" d="m224.9 335.4h-147.9c-0.5 0-0.9-0.4-0.9-0.8 0-0.5 0.4-0.9 0.9-0.9h147.9c0.5 0 0.9 0.4 0.9 0.9 0 0.4-0.4 0.8-0.9 0.8z"/>
					<path id="&lt;Path&gt;" class="s4" d="m228.4 324.8h-153c-0.5 0-0.9-0.4-0.9-0.9 0-0.4 0.4-0.8 0.9-0.8h153c0.5 0 0.9 0.4 0.9 0.8 0 0.5-0.4 0.9-0.9 0.9z"/>
					<path id="&lt;Path&gt;" class="s4" d="m231.8 314.2h-158.1c-0.4 0-0.8-0.4-0.8-0.9 0-0.4 0.4-0.8 0.8-0.8h158.1c0.5 0 0.9 0.4 0.9 0.8 0 0.5-0.4 0.9-0.9 0.9z"/>
					<path id="&lt;Path&gt;" class="s4" d="m235.4 303.6h-163.3c-0.5 0-0.9-0.4-0.9-0.9 0-0.5 0.4-0.8 0.9-0.8h163.3c0.5 0 0.9 0.3 0.9 0.8 0 0.5-0.4 0.9-0.9 0.9z"/>
					<path id="&lt;Path&gt;" class="s4" d="m238.8 293h-168.3c-0.5 0-0.9-0.4-0.9-0.9 0-0.5 0.4-0.8 0.9-0.8h168.3c0.5 0 0.9 0.3 0.9 0.8 0 0.5-0.4 0.9-0.9 0.9z"/>
					<path id="&lt;Path&gt;" class="s4" d="m94.6 369.9c-0.5 0-0.9-0.3-0.9-0.8l-6.7-87.3c0-0.5 0.3-0.9 0.8-1 0.5 0 0.9 0.3 1 0.8l6.6 87.4c0.1 0.5-0.3 0.9-0.8 0.9q0 0 0 0z"/>
					<path id="&lt;Path&gt;" class="s4" d="m202.7 364.2q-0.1 0-0.2 0c-0.5-0.1-0.8-0.6-0.6-1.1l22.2-81.6c0.1-0.5 0.6-0.8 1-0.6 0.5 0.1 0.8 0.6 0.7 1l-22.3 81.7c-0.1 0.4-0.4 0.6-0.8 0.6z"/>
					<path id="&lt;Path&gt;" class="s4" d="m108.5 369.3c-0.5 0-0.9-0.4-0.9-0.9l-2.1-86.7c0-0.5 0.3-0.9 0.8-0.9q0 0 0 0c0.5 0 0.9 0.4 0.9 0.9l2.2 86.7c0 0.5-0.4 0.9-0.9 0.9q0 0 0 0z"/>
					<path id="&lt;Path&gt;" class="s4" d="m122.8 368.5q0 0 0 0c-0.5 0-0.9-0.4-0.9-0.9l1.6-85.9c0-0.5 0.4-0.9 0.9-0.9q0 0 0 0c0.5 0 0.9 0.4 0.9 0.9l-1.6 86c0 0.4-0.4 0.8-0.9 0.8z"/>
					<path id="&lt;Path&gt;" class="s4" d="m187.5 364.9q-0.1 0-0.2 0c-0.5-0.1-0.8-0.5-0.7-1l16.9-82.4c0.1-0.5 0.6-0.8 1-0.7 0.5 0.1 0.8 0.6 0.7 1.1l-16.9 82.3c0 0.4-0.4 0.7-0.8 0.7z"/>
					<path id="&lt;Path&gt;" class="s4" d="m170.1 366q0 0-0.1 0c-0.5-0.1-0.8-0.6-0.7-1l13.6-83.4c0.1-0.5 0.6-0.8 1-0.8 0.5 0.1 0.8 0.6 0.8 1l-13.7 83.4c-0.1 0.5-0.4 0.8-0.9 0.8z"/>
					<path id="&lt;Path&gt;" class="s4" d="m137.4 367.7q0 0 0 0c-0.5 0-0.9-0.5-0.8-0.9l6.3-85.2c0.1-0.4 0.5-0.8 1-0.8 0.5 0.1 0.8 0.5 0.8 1l-6.4 85.1c0 0.4-0.4 0.8-0.9 0.8z"/>
					<path id="&lt;Path&gt;" class="s4" d="m154.6 366.6q-0.1 0-0.1 0c-0.5-0.1-0.8-0.5-0.8-1l9.4-84c0-0.5 0.4-0.8 0.9-0.8 0.5 0.1 0.8 0.5 0.8 1l-9.3 84c-0.1 0.5-0.5 0.8-0.9 0.8z"/>
				</g>
				<g id="&lt;Group&gt;">
					<path id="&lt;Path&gt;" class="s5" d="m93.5 450.8c0 5.4-4.4 9.8-9.8 9.8-5.4 0-9.8-4.4-9.8-9.8 0-5.4 4.4-9.8 9.8-9.8 5.4 0 9.8 4.4 9.8 9.8z"/>
					<path id="&lt;Path&gt;" class="s0" d="m88.2 450.8c0 2.4-2 4.4-4.5 4.4-2.4 0-4.4-2-4.4-4.4 0-2.5 2-4.5 4.4-4.5 2.5 0 4.5 2 4.5 4.5z"/>
				</g>
				<g id="&lt;Group&gt;">
					<path id="&lt;Path&gt;" class="s5" d="m180.9 450.8c0 5.4-4.4 9.8-9.8 9.8-5.4 0-9.7-4.4-9.7-9.8 0-5.4 4.3-9.8 9.7-9.8 5.4 0 9.8 4.4 9.8 9.8z"/>
					<path id="&lt;Path&gt;" class="s0" d="m175.6 450.8c0 2.4-2 4.4-4.5 4.4-2.4 0-4.4-2-4.4-4.4 0-2.5 2-4.5 4.4-4.5 2.5 0 4.5 2 4.5 4.5z"/>
				</g>
				<path id="&lt;Path&gt;" class="s6" d="m59.9 240.5l-13.8-5.2"/>
			</g>
		</g>
	</g>
	<g id="Floor">
		<g id="&lt;Group&gt;">
			<path id="&lt;Path&gt;" class="s5" d="m48.6 460.6c129-0.7 273.8-0.7 402.8 0-129 0.6-273.8 0.6-402.8 0z"/>
		</g>
	</g>
	<g id="Device">
		<g id="&lt;Group&gt;">
			<g id="&lt;Group&gt;">
				<path id="&lt;Compound Path&gt;" class="s5" d="m334.5 77.7h-169c-9.5 0-17.1 7.8-17.1 17.4v348c0 9.7 7.6 17.5 17.1 17.5h169c9.5 0 17.1-7.8 17.1-17.5v-348c0-9.6-7.6-17.4-17.1-17.4zm6.4 354.7c0 9.1-6.8 16.6-15.3 16.6h-151.2c-8.5 0-15.4-7.5-15.4-16.6v-324.1c0-18.6 6.9-19.5 15.4-19.5h30.3c1.7 0 3.2 2 3.2 4.4v1.1c0 5.8 3.2 5.8 7.1 5.8h70c4 0 7.1 0 7.1-5.8v-1.1c0-2.4 1.4-4.4 3.2-4.4h30.3c8.5 0 15.3 2.4 15.3 19.5z"/>
				<g id="&lt;Group&gt;">
					<path id="&lt;Path&gt;" class="s1" d="m340.9 108.6l0.1 324.1c0 9.1-6.9 16.5-15.4 16.5h-151.2c-8.5 0-15.3-7.4-15.3-16.5v-324.1c0-18.7 6.8-19.6 15.3-19.6h30.3c1.7 0 3.2 2 3.2 4.5v1.1c0 5.8 3.2 5.8 7.1 5.8h70c4 0 7.1 0 7.1-5.8v-1.1c0-2.5 1.5-4.5 3.2-4.5h30.3c8.5 0 15.3 2.5 15.3 19.6z"/>
					<path id="&lt;Path&gt;" class="s1" d="m259.6 92.9h-19.2c-0.6 0-1.1-0.6-1.1-1.2 0-0.7 0.5-1.2 1.1-1.2h19.2c0.6 0 1.1 0.5 1.1 1.2 0 0.6-0.5 1.2-1.1 1.2z"/>
					<g id="&lt;Group&gt;">
						<g id="&lt;Group&gt;">
							<g id="u5Zjqx 00000009581439070363742150000017067266285159303834 ">
								<g id="&lt;Group&gt;">
									<path id="&lt;Path&gt;" class="s2" d="m199.4 96q-0.1 0.2-0.2 0.3-0.1 0.1-0.2 0.2-1.2-1.2-2.8-1.2-1.7 0-2.9 1.2 0-0.1-0.1-0.2-0.2-0.1-0.3-0.3 0 0 0 0 0 0 0 0 0 0 0 0 0.2-0.2 0.4-0.3 0.4-0.3 0.8-0.6 0.6-0.2 1.2-0.3 0.3-0.1 0.5-0.1c0.1 0 0.5 0 0.5 0q0.2 0 0.4 0 0.6 0.1 1.1 0.2 0.3 0.2 0.7 0.4 0.3 0.2 0.6 0.4 0.2 0.2 0.3 0.3 0 0 0 0z"/>
									<path id="&lt;Path&gt;" class="s2" d="m194.3 97.4q-0.3-0.2-0.5-0.5 0.8-0.7 1.9-0.9 1.6-0.2 2.8 0.9-0.2 0.3-0.4 0.5-0.8-0.8-1.9-0.8-1.1 0-1.9 0.8z"/>
									<path id="&lt;Path&gt;" class="s2" d="m197.6 97.9q-0.2 0.2-0.5 0.4-0.4-0.4-0.9-0.4-0.6 0-1 0.4-0.2-0.2-0.5-0.4c0.8-0.8 2.1-0.9 2.9 0z"/>
								</g>
								<path id="&lt;Path&gt;" class="s2" d="m196.6 98.7c0 0.3-0.2 0.5-0.4 0.5-0.3 0-0.4-0.2-0.4-0.5 0-0.2 0.1-0.4 0.4-0.4 0.2 0 0.4 0.2 0.4 0.4z"/>
							</g>
							<g id="&lt;Group&gt;">
								<path id="&lt;Path&gt;" class="s2" d="m170.9 96.9c0-0.7 0.5-1.2 1.2-1.2 0.7 0 1.2 0.5 1.2 1.2 0 0.7-0.5 1.2-1.2 1.2-0.7 0-1.2-0.5-1.2-1.2z"/>
								<path id="&lt;Path&gt;" class="s2" d="m174.7 96.9c0-0.7 0.5-1.2 1.2-1.2 0.7 0 1.2 0.5 1.2 1.2 0 0.7-0.5 1.2-1.2 1.2-0.7 0-1.2-0.5-1.2-1.2z"/>
								<path id="&lt;Path&gt;" class="s2" d="m178.5 96.9c0-0.7 0.5-1.2 1.2-1.2 0.7 0 1.2 0.5 1.2 1.2 0 0.7-0.5 1.2-1.2 1.2-0.7 0-1.2-0.5-1.2-1.2z"/>
								<path id="&lt;Path&gt;" class="s2" d="m182.3 96.9c0-0.7 0.5-1.2 1.2-1.2 0.7 0 1.2 0.5 1.2 1.2 0 0.7-0.5 1.2-1.2 1.2-0.7 0-1.2-0.5-1.2-1.2z"/>
								<path id="&lt;Path&gt;" class="s2" d="m186.1 96.9c0-0.7 0.5-1.2 1.2-1.2 0.7 0 1.2 0.5 1.2 1.2 0 0.7-0.5 1.2-1.2 1.2-0.7 0-1.2-0.5-1.2-1.2z"/>
							</g>
							<g id="&lt;Group&gt;">
								<path id="&lt;Compound Path&gt;" class="s2" d="m327.3 99.5h-9.8v-4.5h9.8zm-9.3-0.5h8.8v-3.5h-8.8z"/>
								<path id="&lt;Path&gt;" class="s2" d="m324.6 95.8h-6.3v3h6.3z"/>
								<path id="&lt;Path&gt;" class="s2" d="m328.2 98.5h-0.9v-2.4h0.9z"/>
							</g>
						</g>
					</g>
				</g>
			</g>
			<g id="&lt;Group&gt;">
				<g id="&lt;Group&gt;">
					<path id="&lt;Path&gt;" class="s7" d="m260.4 124.3h-20.8v-49.2h20.8z"/>
					<path id="&lt;Path&gt;" class="s7" d="m260.4 124.3c0 0-1.9 10-10.4 10-8.5 0-10.4-10-10.4-10z"/>
					<path id="&lt;Path&gt;" class="s8" d="m260.4 124.3c0 0-1.9 10-10.4 10-8.5 0-10.4-10-10.4-10z"/>
				</g>
				<g id="&lt;Group&gt;">
					<g id="&lt;Group&gt;">
						<path id="&lt;Path&gt;" class="s1" d="m239.6 124.3h-20.9l2.1-49.2h18.8z"/>
						<path id="&lt;Compound Path&gt;" class="s5" d="m239.6 124.3l-20.9 0.1h-0.2c0 0 2.1-49.2 2-49.3 0 0 0.1-0.2 0.1-0.2h0.2 18.8 0.2c0 0.2-0.2 24.6-0.1 24.8 0 0-0.1 24.6-0.1 24.6zm0 0l-0.2-24.7v-24.5l0.2 0.2-18.8 0.1 0.2-0.3c0 0-2 49.7-2.3 49 0 0 20.9 0.2 20.9 0.2z"/>
					</g>
					<path id="&lt;Path&gt;" class="s0" d="m239.6 124.3c0 0-2 10-10.5 10-8.4 0-10.4-10-10.4-10z"/>
				</g>
				<g id="&lt;Group&gt;">
					<path id="&lt;Path&gt;" class="s7" d="m218.7 124.3h-20.9l4.2-49.2h18.8z"/>
					<path id="&lt;Path&gt;" class="s7" d="m218.7 124.3c0 0-2 10-10.5 10-8.4 0-10.4-10-10.4-10z"/>
					<path id="&lt;Path&gt;" class="s8" d="m218.7 124.3c0 0-2 10-10.5 10-8.4 0-10.4-10-10.4-10z"/>
				</g>
				<g id="&lt;Group&gt;">
					<g id="&lt;Group&gt;">
						<path id="&lt;Path&gt;" class="s1" d="m197.8 124.3h-20.9l6.4-49.2h18.7z"/>
						<path id="&lt;Compound Path&gt;" class="s5" d="m197.8 124.3l-20.9 0.1h-0.2c0 0 6.3-49.2 6.3-49.3 0 0 0.1-0.2 0.1-0.2h0.2 18.7 0.2v0.2l-2.2 24.7zm0 0l2-24.7 2.1-24.5 0.2 0.2-18.8 0.1 0.3-0.3c-0.1 0-6.4 49.8-6.7 49 0 0 20.9 0.2 20.9 0.2z"/>
					</g>
					<path id="&lt;Path&gt;" class="s0" d="m197.8 124.3c0 0-2 10-10.5 10-8.4 0-10.4-10-10.4-10z"/>
				</g>
				<g id="&lt;Group&gt;">
					<path id="&lt;Path&gt;" class="s7" d="m176.9 124.3h-20.9l8.5-49.2h18.8z"/>
					<path id="&lt;Path&gt;" class="s7" d="m176.9 124.3c0 0-2 10-10.5 10-8.4 0-10.4-10-10.4-10z"/>
					<path id="&lt;Path&gt;" class="s8" d="m176.9 124.3c0 0-2 10-10.5 10-8.4 0-10.4-10-10.4-10z"/>
				</g>
				<g id="&lt;Group&gt;">
					<g id="&lt;Group&gt;">
						<path id="&lt;Path&gt;" class="s1" d="m156 124.3h-20.9l9.3-43c0.8-3.6 4.6-6.2 9-6.2h11.1z"/>
						<path id="&lt;Compound Path&gt;" class="s5" d="m156 124.3l-20.9 0.1h-0.2l0.1-0.2c1.3-6.1 7.5-35.4 8.7-40.8 0.3-1.2 0.5-3 1.2-4.1 2.2-4 7.1-4.7 11.2-4.4 0 0 8.4 0 8.4 0h0.2v0.3l-4.3 24.6zm0 0l4.1-24.7 4.2-24.5 0.2 0.2h-8.4c-4-0.2-8.6 0.4-10.8 4.3-0.7 1.1-0.8 2.5-1.1 3.9l-1.8 8.1-7.2 32.7-0.1-0.2z"/>
					</g>
					<path id="&lt;Path&gt;" class="s0" d="m156 124.3c0 0-2 10-10.5 10-8.4 0-10.4-10-10.4-10z"/>
				</g>
				<g id="&lt;Group&gt;">
					<g id="&lt;Group&gt;">
						<path id="&lt;Path&gt;" class="s1" d="m260.4 124.3h20.9l-2.1-49.2h-18.8z"/>
						<path id="&lt;Compound Path&gt;" class="s5" d="m260.4 124.3l-0.1-24.6-0.1-24.6v-0.2h0.2 18.8 0.2l0.1 0.2c-0.1 0.2 2 49.1 2 49.3 0 0-0.2 0-0.2 0zm0 0l20.9-0.1-0.1 0.1-2.2-49.1 0.2 0.2h-18.8l0.2-0.2v24.5z"/>
					</g>
					<path id="&lt;Path&gt;" class="s0" d="m281.3 124.3c0 0-2 10-10.4 10-8.5 0-10.5-10-10.5-10z"/>
				</g>
				<g id="&lt;Group&gt;">
					<path id="&lt;Path&gt;" class="s7" d="m281.3 124.3h20.9l-4.2-49.2h-18.8z"/>
					<path id="&lt;Path&gt;" class="s7" d="m302.2 124.3c0 0-2 10-10.4 10-8.5 0-10.5-10-10.5-10z"/>
					<path id="&lt;Path&gt;" class="s8" d="m302.2 124.3c0 0-2 10-10.4 10-8.5 0-10.5-10-10.5-10z"/>
				</g>
				<g id="&lt;Group&gt;">
					<g id="&lt;Group&gt;">
						<path id="&lt;Path&gt;" class="s1" d="m302.2 124.3h20.9l-6.4-49.2h-18.7z"/>
						<path id="&lt;Compound Path&gt;" class="s5" d="m302.2 124.3l20.9-0.2c-0.3 0.9-6.5-49.2-6.6-48.9 0 0 0.2 0.2 0.2 0.2l-18.7-0.1 0.2-0.2c1 12.3 3.1 36.9 4 49.2zm0 0l-2.2-24.5-2.2-24.7v-0.2h0.2 18.7 0.2c0.1 0.3 6.3 49.1 6.4 49.5 0 0-0.2 0-0.2 0z"/>
					</g>
					<path id="&lt;Path&gt;" class="s0" d="m323.1 124.3c0 0-2 10-10.4 10-8.5 0-10.5-10-10.5-10z"/>
				</g>
				<g id="&lt;Group&gt;">
					<path id="&lt;Path&gt;" class="s7" d="m323.1 124.3h20.9l-8.5-49.2h-18.8z"/>
					<path id="&lt;Path&gt;" class="s7" d="m344 124.3c0 0-2 10-10.4 10-8.5 0-10.5-10-10.5-10z"/>
					<path id="&lt;Path&gt;" class="s8" d="m344 124.3c0 0-2 10-10.4 10-8.5 0-10.5-10-10.5-10z"/>
				</g>
				<g id="&lt;Group&gt;">
					<g id="&lt;Group&gt;">
						<path id="&lt;Path&gt;" class="s1" d="m344 124.3h20.9l-9.3-43c-0.8-3.6-4.6-6.2-9-6.2h-11.1z"/>
						<path id="&lt;Compound Path&gt;" class="s5" d="m344 124.3l-4.4-24.5-4.3-24.6v-0.3h0.2 8.4c4.8-0.4 10.7 0.9 12 6.4 0 0 0.4 2.1 0.4 2.1 1.1 5.3 7.5 34.9 8.7 40.8l0.1 0.2h-0.2zm0 0l20.9-0.1-0.1 0.1-7.2-32.6-1.8-8.2c-0.3-1.3-0.4-2.7-1.1-3.9-2.2-3.8-6.8-4.5-10.9-4.2 0 0-8.3 0-8.3 0l0.2-0.3c2.1 12.3 6.3 36.9 8.3 49.2z"/>
					</g>
					<path id="&lt;Path&gt;" class="s0" d="m364.9 124.3c0 0-2 10-10.4 10-8.5 0-10.5-10-10.5-10z"/>
				</g>
			</g>
			<g id="&lt;Group&gt;">
				<path id="&lt;Path&gt;" class="s7" d="m298.6 317.7h-97.2v-97.2h97.2z"/>
				<g id="&lt;Group&gt;">
					<g id="&lt;Group&gt;">
						<path id="&lt;Path&gt;" class="s1" d="m281.9 267.1h-63.8v-9.1h63.8z"/>
						<path id="&lt;Path&gt;" class="s1" d="m278.4 265.1l-2.1 33.6h-52.6l-2.1-33.6z"/>
						<path id="&lt;Path&gt;" class="s1" d="m256.8 261.5c0 3.8-3 6.8-6.8 6.8-3.8 0-6.8-3-6.8-6.8 0-3.7 3-6.8 6.8-6.8 3.8 0 6.8 3.1 6.8 6.8z"/>
						<path id="&lt;Path&gt;" class="s7" d="m241.1 272.4v19.4c0 0.9-0.8 1.7-1.8 1.7h-0.2c-0.8 0-1.5-0.7-1.5-1.4v-19.7c0-0.8 0.7-1.4 1.5-1.4h0.5c0.8 0 1.5 0.6 1.5 1.4z"/>
						<path id="&lt;Path&gt;" class="s7" d="m251.7 272.4v19.4c0 0.9-0.8 1.7-1.7 1.7h-0.3c-0.8 0-1.4-0.7-1.4-1.4v-19.7c0-0.8 0.6-1.4 1.4-1.4h0.6c0.8 0 1.4 0.6 1.4 1.4z"/>
						<path id="&lt;Path&gt;" class="s7" d="m262.3 272.4v19.4c0 0.9-0.7 1.7-1.7 1.7h-0.3c-0.7 0-1.4-0.7-1.4-1.4v-19.7c0-0.8 0.7-1.4 1.4-1.4h0.6c0.8 0 1.4 0.6 1.4 1.4z"/>
						<path id="&lt;Path&gt;" class="s1" d="m268.6 261h-3v-18h-31.2v18h-3v-21h37.2z"/>
					</g>
				</g>
				<g id="&lt;Group&gt;">
					<path id="&lt;Path&gt;" class="s9" d="m314.5 220.5c0 8.8-7.1 15.9-15.9 15.9-8.8 0-15.9-7.1-15.9-15.9 0-8.7 7.1-15.9 15.9-15.9 8.8 0 15.9 7.2 15.9 15.9z"/>
					<g id="&lt;Group&gt;">
						<path id="&lt;Compound Path&gt;" class="s1" d="m301.9 218.9c1.1 1.1 1.6 2.5 1.6 3.9 0 1.4-0.5 2.8-1.6 3.9-1.1 1.1-2.5 1.7-3.9 1.7-1.4 0-2.9-0.6-4-1.7-0.5-0.5-0.5-1.3 0-1.8 0.5-0.4 1.3-0.4 1.8 0 0.6 0.6 1.4 0.9 2.2 0.9 0.7 0 1.5-0.3 2.1-0.9 0.6-0.6 0.9-1.3 0.9-2.1 0-0.8-0.3-1.6-0.9-2.1-0.6-0.6-1.3-0.9-2.1-0.9-0.4 0-0.7-0.2-0.9-0.4q-0.1 0-0.1-0.1c-0.5-0.4-0.5-1.2 0-1.7l2.3-2.4h-3.6c-0.7 0-1.3-0.5-1.3-1.3 0-0.6 0.6-1.2 1.3-1.2h6.6c0.7 0 1.2 0.6 1.2 1.2q0 0.4-0.1 0.7-0.1 0.1-0.2 0.3l-2.9 2.9q0.9 0.4 1.6 1.1z"/>
					</g>
				</g>
			</g>
		</g>
	</g>
	<g id="Character">
		<g id="&lt;Group&gt;">
			<path id="&lt;Path&gt;" class="s10" d="m369.8 162.8c7.9 5.7 33.1 28.5 34.7 32.3 1.9 4.5-7.9 20.6-11.9 20.2-10.5-0.9-28.8-33.8-34.6-48.8-2.9-7.4-1.4-13.2 11.8-3.7z"/>
			<g id="&lt;Group&gt;">
				<g id="&lt;Group&gt;">
					<path id="&lt;Path&gt;" class="s10" d="m391.1 160.8c2.3-2.5 20.2 10.8 19.8 15.7-1.3 18.1-6.8 33.5-10.1 36.7-3.8 3.6-11.4 3.3-14.4-2.9-3.9-8.3-4-40 4.7-49.5z"/>
					<g id="&lt;Group&gt;">
						<path id="&lt;Path&gt;" class="s5" d="m384.5 200.1c-2-10.1 0.6-24.2 0.6-24.2 0-0.2 0.2-0.3 0.2-0.2 0.1 2-1.3 16.8-0.5 24.3 0 0-0.3 0.1-0.3 0.1z"/>
					</g>
				</g>
				<g id="&lt;Group&gt;">
					<path id="&lt;Path&gt;" class="s10" d="m414.8 163.3c-0.4 5.2-5.2 15.7-7.3 17.8-2.1 2.1-20.2-5.5-21-8.5-0.8-2.9 1.6-20.5 5.2-24.5 3.5-4 23.4 9.7 23.1 15.2z"/>
					<g id="&lt;Group&gt;">
						<path id="&lt;Path&gt;" class="s10" d="m386.4 169.6c0 0-2.1-6.6-5.8-11.3-3.1-4.1-8.1-9.7-6-11.4 4.4-3.6 16.9 10.5 16.9 10.5 0 0 4.5 7.1 0.5 11-2.5 2.4-5.6 1.2-5.6 1.2z"/>
					</g>
					<g id="&lt;Group&gt;">
						<g id="&lt;Group&gt;">
							<g id="&lt;Group&gt;">
								<path id="&lt;Path&gt;" class="s7" d="m391.8 158.9l4.6-2.8-8.3-13.6-5.9 3.7z"/>
								<path id="&lt;Path&gt;" class="s7" d="m382.2 146.2l3.6 4.8 6 7.9 4.6-2.8-8.3-13.6z"/>
								<path id="&lt;Path&gt;" class="s8" d="m382.2 146.2l3.6 4.8 5.5-3.3-3.2-5.2z"/>
							</g>
							<path id="&lt;Path&gt;" class="s7" d="m382.8 148.5l7.4-4.5-3.4-5.6-7.4 4.5z"/>
						</g>
						<g id="&lt;Group&gt;">
							<g id="&lt;Group&gt;">
								<path id="&lt;Path&gt;" class="s7" d="m373.2 143.9l6.1-2.9-5.6-9.1-5.4 4.1z"/>
							</g>
							<path id="&lt;Path&gt;" class="s7" d="m375.5 128.3l8.3 13.4 10.3-4.8 27.4-5.6-19.8-32.1-17.3 22z"/>
							<path id="&lt;Path&gt;" class="s7" d="m406.9 118.2c5.5 8.9 12.3 14.6 15.1 12.9 2.9-1.8 0.8-10.4-4.7-19.3-5.5-8.9-12.3-14.7-15.2-13-2.8 1.8-0.7 10.4 4.8 19.4z"/>
							<path id="&lt;Path&gt;" class="s11" d="m407.9 117.1c4.9 7.9 10.8 13.2 13.1 11.7 2.4-1.4 0.3-9-4.6-16.9-4.9-7.9-10.7-13.1-13.1-11.7-2.3 1.4-0.2 9 4.6 16.9z"/>
							<path id="&lt;Path&gt;" class="s7" d="m408.6 116.7q1 1.6 2 3c0.8 0.1 1.7 0 2.5-0.5 1.7-1.1 2.3-3.4 1.2-5.2l-0.9-1.5c-1.1-1.8-3.4-2.3-5.2-1.2-0.8 0.4-1.3 1.1-1.6 1.9q0.9 1.7 2 3.5z"/>
							<g id="&lt;Group&gt;">
								<path id="&lt;Path&gt;" class="s7" d="m379 145.6l11.8-5.7-10.8-17.5-10.4 7.9z"/>
								<path id="&lt;Path&gt;" class="s11" d="m379 145.6l11.8-5.7-10.8-17.5-10.4 7.9z"/>
							</g>
							<path id="&lt;Path&gt;" class="s11" d="m401.5 102.4c-0.2 1.4 0 2.8 0.3 4.2q0.5 2.1 1.2 4.1c0.3 0.6 0.6 1.3 0.9 1.9q0.4 1 0.9 1.9c0.4 0.7 0.7 1.3 1 1.9q0.6 0.9 1.1 1.8c1.5 2.4 3.2 4.8 5.1 6.9 1 1 2 2 3.2 2.9 1.1 0.8 2.3 1.6 3.7 1.8-1.3-0.3-2.5-1.1-3.6-2-1.1-0.9-2.1-1.9-3.1-2.9-1.8-2.2-3.5-4.5-4.9-6.9-1.5-2.4-2.9-4.8-4-7.5q-0.8-1.9-1.3-4c-0.4-1.3-0.6-2.7-0.5-4.1z"/>
						</g>
						<g id="&lt;Group&gt;">
							<path id="&lt;Path&gt;" class="s5" d="m412.9 94.4q-0.7 1.2-1.4 2.6-0.6 1.3-1.2 2.6-0.7 1.3-1.2 2.7l-0.6 1.4q-0.2 0.7-0.5 1.3 0.4-0.6 0.7-1.2l0.7-1.4q0.6-1.3 1.3-2.6 0.6-1.3 1.1-2.7 0.6-1.4 1.1-2.7z"/>
							<path id="&lt;Path&gt;" class="s5" d="m418.4 123q1.7-0.2 3.3-0.5 1.6-0.3 3.3-0.6 1.6-0.3 3.2-0.7l1.6-0.4q0.8-0.2 1.6-0.5-0.8 0.1-1.6 0.3l-1.7 0.2q-1.6 0.3-3.2 0.7-1.7 0.3-3.3 0.7-1.6 0.4-3.2 0.8z"/>
							<path id="&lt;Path&gt;" class="s5" d="m435.9 111.9q-2.3 0.8-4.6 1.6-2.3 0.8-4.6 1.6-2.3 0.9-4.5 1.8l-2.3 0.9q-1.1 0.5-2.3 0.9 1.2-0.3 2.4-0.7l2.3-0.8q2.3-0.8 4.6-1.7 2.3-0.8 4.5-1.7 2.3-0.9 4.5-1.9z"/>
							<path id="&lt;Path&gt;" class="s5" d="m421.5 91.3q-1.5 2-2.8 4.1-1.4 2-2.7 4.1-1.4 2.1-2.6 4.2l-1.3 2.2q-0.6 1-1.2 2.1 0.7-1 1.4-2l1.4-2.1q1.3-2 2.7-4.1 1.3-2.1 2.6-4.2 1.2-2.1 2.5-4.3z"/>
							<path id="&lt;Path&gt;" class="s5" d="m414.7 113.2q2.5-1.5 4.9-3 2.5-1.4 4.9-3 2.4-1.5 4.8-3l2.4-1.6q1.2-0.8 2.3-1.6-1.2 0.7-2.4 1.4l-2.5 1.5q-2.4 1.5-4.8 3-2.4 1.5-4.8 3.1-2.4 1.5-4.8 3.2z"/>
						</g>
					</g>
					<g id="&lt;Group&gt;">
						<path id="&lt;Path&gt;" class="s10" d="m387.4 155.3c1.3 2.5 3.4-0.4 3.4-0.4 0 0-2.1 4.9 0.3 7 2.2 1.9 4.7-1.8 4.9-2-0.1 0.3-1.9 4.9 0.6 6.7 2.7 1.8 4.5-2.3 4.6-2.5 0 0.3-0.2 4 2 4.9 3.9 1.6 4.8-7.9 7.4-10 0 0 4 4.2 4.2 4.3 0 0 1-9.1-2-12.5-1.5-1.9-3.5-0.8-3.5-0.8 0 0 0.6-2.9-1.3-4.3-1-0.8-3.1 0.2-3.1 0.2 0 0 0.4-2.4-1.4-3.6-1.5-0.9-3.4 0.2-3.4 0.2 0 0-0.6-2.5-2.4-3-3.6-1-13.1 10.6-10.3 15.8z"/>
						<g id="&lt;Group&gt;">
							<path id="&lt;Path&gt;" class="s5" d="m399.8 142.6c0 0 0-0.1 0-0.1-4.1 3.1-7.6 7.6-9.1 12.5-0.1 0.2 0.2 0.3 0.3 0.1 2.5-4.7 5.1-8.6 8.8-12.5z"/>
							<path id="&lt;Path&gt;" class="s5" d="m404.9 145.8c0-0.1 0-0.1-0.1-0.1-4.1 3.2-8 8.4-9 14.2-0.1 0.2 0.1 0.4 0.1 0.2 1.1-3.8 5.6-10.9 9-14.3z"/>
							<path id="&lt;Path&gt;" class="s5" d="m401.3 164.5c1.2-5.5 4.1-10.1 7.8-14.4 0 0-0.1-0.1-0.1 0-2.4 1.6-4.4 4.5-5.8 7-1.3 2.3-2.1 4.7-2.1 7.4 0 0.1 0.2 0.1 0.2 0z"/>
						</g>
						<path id="&lt;Path&gt;" class="s5" d="m390.7 154.9c0 0.2 0.3 0.1 0.3 0.2-0.3 0.9-1.2 5.9 0.4 6.7 1.3 0.7 3.1-0.6 3.6-1.3l1.3-2-0.5 2.3c-0.3 0.9-0.4 2-0.3 3 0.1 1 0.5 1.9 1.2 2.4 0.8 0.6 1.7 0.6 2.4 0.1 0.8-0.6 1.3-1.5 1.7-2.4l1.1-2.5-0.2 2.7c-0.1 0.7 0 1.5 0.1 2.2 0.2 0.8 0.4 1.5 0.9 1.9 0.5 0.5 1.2 0.7 1.8 0.5 0.6-0.3 1.1-0.9 1.5-1.5 0.9-1.2 1.5-2.7 2.2-4.1q0.5-1.1 1-2.2c0.4-0.7 0.8-1.4 1.4-1.9-0.6 0.6-0.9 1.3-1.2 2q-0.4 1.1-0.8 2.2c-0.6 1.5-1.2 3-2 4.4-0.5 0.7-1 1.4-1.9 1.8-0.9 0.4-1.9 0.1-2.6-0.6-0.7-0.6-1-1.5-1.1-2.3-0.2-0.8-0.3-1.6-0.2-2.5l0.9 0.2c-0.5 1.1-1 2.1-2 2.8-0.5 0.4-1.1 0.7-1.8 0.6-0.6 0-1.2-0.3-1.7-0.6-1-0.8-1.4-2-1.5-3.1-0.1-1.2 0-2.2 0.3-3.3l0.7 0.3c-0.7 0.9-2.5 2.6-4.6 1.8-2.7-1.5-0.8-6.9-0.4-7.8z"/>
						<path id="&lt;Path&gt;" class="s5" d="m390.8 154.9c-0.4 0.4-0.9 0.7-1.4 0.9-0.5 0.2-1 0.2-1.3-0.1-0.4-0.2-0.6-0.7-0.8-1.3q-0.2-0.8-0.4-1.7-0.3 0.9-0.2 1.9c0.1 0.6 0.3 1.3 0.9 1.7q0.5 0.4 1.1 0.4 0.6-0.1 1-0.4c0.6-0.3 0.9-0.9 1.1-1.4z"/>
					</g>
				</g>
			</g>
			<g id="&lt;Group&gt;">
				<g id="&lt;Group&gt;">
					<g id="&lt;Group&gt;">
						<path id="&lt;Path&gt;" class="s10" d="m345.3 448.4c-2-1.2-42.3-50-42.6-52.8-0.1-0.4 6.1-5.9 13.8-12.9 0.4-0.3 29.6-28.5 29.6-28.5l25 30.2-27.3 27.9c0 0 7 25.5 7.1 28.7 0 3.1-3.6 8.7-5.6 7.4z"/>
						<path id="&lt;Path&gt;" class="s7" d="m346.7 422.4q-0.2-0.3-0.1-0.3 0 0 0.1 0.3z"/>
						<path id="&lt;Path&gt;" class="s0" d="m350.9 441c0 3.1-3.6 8.7-5.6 7.4-2-1.2-42.3-50-42.6-52.8-0.1-0.4 6.1-5.9 13.8-12.9 0.2-0.1 2.7-2.6 6.3-6l25.8 30.6-4.8 5c0 0 7 25.5 7.1 28.7z"/>
						<g id="&lt;Group&gt;">
							<path id="&lt;Path&gt;" class="s7" d="m346.8 447.9c-2-1.2-42.5-50.6-42.9-53.5-0.1-1.1 6.7-7.4 15.2-14.8q0.2-0.2 0.3-0.3l26.5 31.6-0.5 0.5c0 0 7.1 25.8 7.1 29 0.1 3.2-3.7 8.8-5.7 7.5z"/>
							<g id="&lt;Group&gt;">
								<path id="&lt;Path&gt;" class="s1" d="m348.3 445.8c-6.6-8.5-34.2-42.2-41.4-50.1-0.1 0-0.1 0-0.1 0.1 6.4 8.6 34.3 42 41.4 50.1 0.1 0.2 0.2 0.1 0.1-0.1z"/>
								<path id="&lt;Path&gt;" class="s1" d="m347.5 414.1c-2.1-3.8-5.9-7.4-10.3-7.9-0.2-0.1-0.2 0.2-0.1 0.2 3.7 2.4 6.8 4.9 10 8 0.2 0.3 0.5 0 0.4-0.3z"/>
								<path id="&lt;Path&gt;" class="s1" d="m348 417.7c-2.1-3.8-5.9-7.4-10.3-8-0.1 0-0.2 0.2 0 0.3 3.6 2.4 6.8 4.9 9.9 8 0.2 0.2 0.6-0.1 0.4-0.3z"/>
								<path id="&lt;Path&gt;" class="s1" d="m348.5 421.2c-2.1-3.8-5.9-7.4-10.2-8-0.2 0-0.2 0.2-0.1 0.3 3.6 2.4 6.8 4.9 9.9 8 0.2 0.2 0.6 0 0.4-0.3z"/>
							</g>
							<path id="&lt;Path&gt;" class="s5" d="m349.2 447.2c0.4 1.2-2.7 3.4-3.5 3-0.7-0.4-44.7-54.5-45.3-55.6-0.5-1.1 3-3.5 4.1-2.5 1 0.9 44.7 55.1 44.7 55.1z"/>
							<path id="&lt;Path&gt;" class="s1" d="m320.6 392c-1.2-5-9-3.2-7.9 1.8 1.2 5.1 9 3.3 7.9-1.8z"/>
						</g>
					</g>
					<g id="&lt;Group&gt;">
						<path id="&lt;Path&gt;" class="s12" d="m366.1 323.7c-2.2 11-42.7 49-42.7 49l31.9 36.9c0 0 59.7-58.9 56.3-83.3-3-21.1-34.7-106.4-34.7-106.4h-36.6c0 0 28 93 25.8 103.8z"/>
						<path id="&lt;Path&gt;" class="s12" d="m366.1 323.7c-2.2 11-42.7 49-42.7 49l31.9 36.9c0 0 59.7-58.9 56.3-83.3-3-21.1-34.7-106.4-34.7-106.4h-36.6c0 0 28 93 25.8 103.8z"/>
						<g id="&lt;Group&gt;">
							<g id="&lt;Group&gt;">
								<g id="&lt;Group&gt;">
									<path id="&lt;Path&gt;" class="s5" d="m358.9 400.8c-4.2-5.3-2.9-3.8-7.2-9-2.1-2.6-16-19.4-18.3-21.4-0.1-0.1-0.2 0-0.1 0.1 1.5 2.7 15.7 19.2 17.8 21.7 4.4 5.2 3.2 3.6 7.7 8.7 0.1 0.1 0.2 0 0.1-0.1z"/>
								</g>
							</g>
							<path id="&lt;Path&gt;" class="s5" d="m370.7 318.3c-0.6-2.7-1.2-5.5-1.8-8.2q-1.7-8.4-3.7-16.8-4-16.5-8.6-32.9c-3.1-11-6.4-21.9-10.2-32.6q-0.8-2-1.5-4c0-0.1-0.2-0.1-0.1 0 3.2 10.8 6.6 21.5 9.7 32.4 3.1 10.7 5.9 21.6 8.6 32.5 1.4 5.4 2.6 10.9 3.8 16.4q0.9 4 1.8 8.1c0.6 2.7 1.4 5.5 1.5 8.3 0.2 2.8-0.7 5.2-2.1 7.6-1.4 2.2-3 4.3-4.6 6.4-3.1 4.3-27.6 31.5-28.6 32.4 0 0.1 0.1 0.2 0.1 0.1 4-3.6 24-25 27.3-29.2q2.3-3.1 4.6-6.4c1.4-2 2.9-4 3.7-6.4 0.8-2.5 0.5-5.1 0.1-7.7z"/>
						</g>
						<path id="&lt;Path&gt;" class="s5" d="m370.6 219.9l-6.7 87.2c-6.3-29.8-23.6-87.2-23.6-87.2z"/>
					</g>
				</g>
				<g id="&lt;Group&gt;">
					<g id="&lt;Group&gt;">
						<path id="&lt;Path&gt;" class="s10" d="m432 459.9c-2.2 0.7-65.5 0.9-67.9-0.6-0.4-0.2-0.7-8.5-1.2-18.9 0-0.5-7.7-43.2-7.7-43.2l39.2-0.2 8.6 41.1c0 0 24.3 10.8 26.8 12.8 2.4 1.9 4.4 8.3 2.2 9z"/>
						<path id="&lt;Path&gt;" class="s0" d="m432 459.9c-2.2 0.8-65.5 0.9-67.9-0.6-0.4-0.2-0.7-8.4-1.2-18.9 0-0.1-0.6-3.4-1.4-8.2h40.3l1.2 5.9c0 0 24.3 10.8 26.8 12.8 2.4 1.9 4.4 8.3 2.2 9z"/>
						<path id="&lt;Path&gt;" class="s7" d="m412.7 442.3q-0.3-0.1-0.3-0.1 0 0 0.3 0.1z"/>
						<g id="&lt;Group&gt;">
							<path id="&lt;Path&gt;" class="s7" d="m432.3 459.6c-2.3 0.8-66.2 0.5-68.6-1.1-1-0.6-1.5-9.9-1.7-21.2q-0.1-0.1-0.1-0.3l41.3-0.3v0.7c0 0 24.4 11.1 26.9 13.1 2.5 1.9 4.4 8.4 2.2 9.1z"/>
							<g id="&lt;Group&gt;">
								<path id="&lt;Path&gt;" class="s1" d="m431.6 457.1c-10.8-0.3-54.3-0.5-65 0-0.1 0-0.1 0 0 0 10.7 0.6 54.2 0.5 65 0.2 0.2 0 0.2-0.2 0-0.2z"/>
								<path id="&lt;Path&gt;" class="s1" d="m406.7 437.5c-4.3-0.8-9.5-0.1-12.7 2.9-0.2 0.1 0 0.3 0.2 0.2 4.1-1.3 8.1-2.1 12.4-2.5 0.3 0 0.4-0.5 0.1-0.6z"/>
								<path id="&lt;Path&gt;" class="s1" d="m409.7 439.4c-4.2-0.8-9.4-0.2-12.7 2.8-0.1 0.1 0.1 0.3 0.2 0.3 4.2-1.3 8.1-2.2 12.5-2.6 0.3 0 0.3-0.4 0-0.5z"/>
								<path id="&lt;Path&gt;" class="s1" d="m412.8 441.3c-4.3-0.8-9.5-0.2-12.7 2.8-0.1 0.1 0 0.3 0.2 0.2 4.1-1.3 8.1-2.1 12.4-2.5 0.4 0 0.4-0.5 0.1-0.5z"/>
							</g>
							<path id="&lt;Path&gt;" class="s5" d="m433.3 457.3c1.1 0.5 0.9 4.3 0 4.6-0.8 0.3-70.5-0.3-71.7-0.6-1.2-0.2-0.8-4.5 0.6-4.7 1.4-0.2 71.1 0.7 71.1 0.7z"/>
							<path id="&lt;Path&gt;" class="s1" d="m372.5 444.2c-4.7-2.4-8.3 4.8-3.7 7.2 4.7 2.3 8.3-4.9 3.7-7.2z"/>
						</g>
					</g>
					<g id="&lt;Group&gt;">
						<path id="&lt;Path&gt;" class="s12" d="m373.4 219.9c-0.1 0.8-2.1 7.8-3.2 18.3-0.7 7.7-1.7 14.4-2.7 15.3-1.2 0.9-6.9 4.6-8.9 5.8 0 0 18 54.7 22.7 72.9 6.7 26.5 22.9 96.5 22.9 96.5h-44.2c0 0-12-66.2-17.7-91.4-4.9-21.6-23.7-86.3-23.7-86.3-6.8-16.8 4.7-31.1 4.7-31.1 0 0 50.1 0 50.1 0z"/>
						<g id="&lt;Group&gt;">
							<path id="&lt;Path&gt;" class="s5" d="m400.1 420.4c-6.6-0.1-4.7-0.1-11.2-0.1-3.2 0-24.2 0.1-27.2 0.7 0 0 0 0.1 0 0.1 3 0.5 24 0 27.2-0.1 6.5-0.2 4.6-0.2 11.2-0.4 0.1 0 0.1-0.2 0-0.2z"/>
							<g id="&lt;Group&gt;">
								<path id="&lt;Path&gt;" class="s5" d="m370.5 251.3c-4.2 2.2-8.1 5.1-11.8 8-0.2 0.1 0 0.3 0.1 0.2 4-2.5 8.2-5 12.1-7.7 0.3-0.2 0-0.7-0.4-0.5z"/>
								<path id="&lt;Path&gt;" class="s5" d="m367.3 221.6c-0.1-0.2-0.3-0.2-0.3 0 0.8 5.1 1.2 9.7 1.5 14.5 0.1 2.3 0.3 14.8-3.7 14.5-0.7 0-1.1-0.6-1.4-1.6-0.3-1.1-0.1-2.6-0.1-3.8q0.1-4-0.2-7.9c-0.3-4.9-1-9.8-2.4-14.5 0-0.2-0.3-0.1-0.2 0 1 6.8 1.9 13.5 1.9 20.3 0 3.2-0.8 8.3 2.6 8.3 3.5-0.1 4.4-8.4 4.5-10.7 0.2-6.3-0.8-13-2.2-19.1z"/>
								<path id="&lt;Path&gt;" class="s5" d="m364.9 250.9q-0.3 1.4-0.5 2.7c0 0.7-0.2 1.5 0 2.2 0 0.1 0.2 0.1 0.3 0 0.3-0.7 0.4-1.5 0.6-2.2q0.2-1.2 0.5-2.5c0.1-0.5-0.7-0.7-0.9-0.2z"/>
							</g>
							<path id="&lt;Path&gt;" class="s5" d="m356.1 405.8q-0.1-1.5-0.4-3c-0.2-1.9-0.5-3.8-0.8-5.7q-0.9-5.7-2-11.4c-1.3-7.6-2.9-15.2-4.5-22.8-0.9-4.2-2-8.4-3.2-12.7 0-0.3-0.5-0.1-0.4 0.2 0.7 3.8 1.3 7.7 2.1 11.5q1.2 5.8 2.4 11.5c1.5 7.6 2.9 15.2 4.4 22.8 0.4 2.1 0.8 4.3 1.2 6.4q0.3 1.6 0.7 3.2c0.2 1 0.5 2.1 0.7 3.2 0 0.1 0.2 0 0.1-0.1-0.1-1-0.1-2.1-0.3-3.1z"/>
							<path id="&lt;Path&gt;" class="s5" d="m385.8 348.6c-1.4-7.1-3.3-14.2-5.3-21.2-3.9-14.1-8.5-28.1-13.1-42q-2-6-4-12c-0.6-2-3.9-12.8-4.3-13.9 0-0.1-0.2 0-0.2 0.1 1 3.7 2.3 9 3.3 12.7 1.1 3.6 2.3 7.2 3.4 10.8 2.2 7 4.4 14 6.5 21.1 4.3 14 8.5 28 11.9 42.1 0.9 4 1.9 8 2.8 12 0.8 4 1.6 8 2.4 12 0.1 0.1 0.2 0.1 0.2 0-0.7-7.3-2.1-14.5-3.6-21.7z"/>
							<path id="&lt;Path&gt;" class="s5" d="m359.1 386c-2.4-13.6-5.3-27.2-8.4-40.7q-4.7-20.3-10.6-40.3c-3.8-13.4-8.1-26.6-12.7-39.7-2.2-6.2-4.9-12.4-5.9-18.9-1.1-7.1-0.7-15.4 4-24.5 0-0.1-0.1-0.1-0.2 0-3.9 5.8-8.2 17.8-1 37.1 2.4 6.5 4.4 13 6.6 19.5q3.3 10.1 6.3 20.2c3.9 13.4 7.6 26.9 10.9 40.5q5 20.3 8.9 40.9c2.6 13.8 3.6 18.4 5.8 32.3 0.3 1.8 0.5 3.6 0.8 5.4 0 0.1 0.1 0.1 0.1 0-1.6-13.7-2.3-18.2-4.6-31.8z"/>
						</g>
					</g>
				</g>
			</g>
			<g id="&lt;Group&gt;">
				<g id="&lt;Group&gt;">
					<path id="&lt;Path&gt;" class="s7" d="m378.6 221.2l-2.8-18.9c0 0 5.6-6.5 2-14.3-1.8-4-13.1-25.4-19.8-30.3-6.3-4.6-14.2-0.3-17.1 3.7-8.5 11.4-14.7 22.3-19.6 59.5z"/>
					<g id="&lt;Group&gt;">
						<path id="&lt;Path&gt;" class="s5" d="m366.1 199.3c-2.9 0.3-5.7 0.7-8.5 1.5q-2.1 0.5-4.2 1.2-1 0.3-2 0.6c-0.7 0.2-1.5 0.4-2.2 0.4-0.1 0-0.1 0.1 0 0.1 0.7 0.1 1.4 0.1 2.1 0q1-0.1 2-0.4c1.4-0.3 2.8-0.8 4.3-1.1 2.8-0.8 5.6-1.5 8.5-2 0.2-0.1 0.1-0.3 0-0.3z"/>
						<path id="&lt;Path&gt;" class="s5" d="m373.2 201.8c-2.3-0.2-4.7-0.3-7.1-0.3q-1.8 0.1-3.6 0.2-0.8 0.1-1.7 0.2c-0.6 0.1-1.2 0.3-1.8 0.4-0.1 0-0.1 0.1 0 0.1 0.6-0.1 1.2 0 1.8-0.1q0.8 0 1.7 0 1.8 0 3.6-0.1 3.6-0.1 7.1-0.2c0.2 0 0.2-0.1 0-0.2z"/>
					</g>
				</g>
				<g id="&lt;Group&gt;">
					<path id="&lt;Path&gt;" class="s10" d="m340.5 161c-17.9 16.9-34.4 44.7-33.3 59.4 1.2 14.4 6.1 12.6 7.5 12.3 8.7-1.3 25.6-43.4 30.4-60.3 4.7-16.8-0.2-15.6-4.6-11.4z"/>
				</g>
				<g id="&lt;Group&gt;">
					<g id="&lt;Group&gt;">
						<g id="&lt;Group&gt;">
							<path id="&lt;Path&gt;" class="s5" d="m345.6 144.6c-3.1-0.1-10.3 3.5-12.1 8-1.8 4.4-0.4 10.8 1 11.2 1.5 0.4 7.1-1.2 10.5-4.1 3.5-2.9 2.2-15 0.6-15.1z"/>
							<path id="&lt;Path&gt;" class="s5" d="m345.7 144.6c0.1 0 0-0.2-0.1-0.2-2.6 0.5-5.2 1.9-7.6 3.1-1.9 0.9-3.8 2-5.2 3.7-1.3 1.6-1.8 3.6-1.5 5.7 0.3 2.3 1.2 5.1 2.7 6.9 0.1 0 0.2 0 0.1-0.1-2-4.1-4-9.2-0.3-13 3.2-3.2 7.8-4.4 11.9-6.1z"/>
						</g>
						<g id="&lt;Group&gt;">
							<path id="&lt;Path&gt;" class="s5" d="m334.7 162.6c-2.5 0.8-8.3 7-8.5 12.2-0.2 5.2 5.2 11.7 6.6 12 1.3 0.3 6.2-5.5 7.4-9.4 0.8-2.5-0.7-5.1-1.8-7.6-1.6-3.9-3.3-7.4-3.7-7.2z"/>
							<path id="&lt;Path&gt;" class="s5" d="m341.7 176.5c-0.2-5.2-4-9.6-6.6-13.9 0 0-0.1 0-0.1 0.1 1.8 4.2 5.2 7.6 6.1 12.2 0.6 2.7 0.1 5.5-1.8 7.6-1.7 1.8-4 2.9-6.1 4.2-0.1 0 0 0.2 0.2 0.2 4.2-2.3 8.4-5 8.3-10.4z"/>
							<path id="&lt;Path&gt;" class="s5" d="m334.3 163.2c0.1-0.1 0-0.3-0.2-0.2-3.3 2.4-7.3 5.8-8.6 9.9-1.4 4.5 1.6 8.4 4.2 11.7 0 0 0.1 0 0.1-0.1-2.6-3.3-5.5-7.6-3.8-12 1.5-3.8 5.1-7 8.3-9.3z"/>
						</g>
						<g id="&lt;Group&gt;">
							<path id="&lt;Path&gt;" class="s5" d="m333.6 185.7c-2.5 3.5-5.3 8.7-3.3 12.1 2 3.4 8.1 7.5 8.5 7.3 0.4-0.1 5.7-6.4 5.6-11.2-0.1-4.9-10.5-8.7-10.8-8.2z"/>
							<path id="&lt;Path&gt;" class="s5" d="m339.2 205.3c-3.5-1.4-7.9-3.6-9.4-7.5-1.4-3.7 1.4-8.6 3.4-11.5 0-0.1 0-0.1 0-0.1-2.4 2.9-5 7.7-3.7 11.5 1.2 3.8 6 6.8 9.7 7.8 0.1 0 0.1-0.1 0-0.2z"/>
						</g>
						<g id="&lt;Group&gt;">
							<path id="&lt;Path&gt;" class="s5" d="m338.7 204.8c-1.1 1.7-1.8 5.6-0.5 9 2.3 5.7-0.3 5.8-5.2 10.6-4.1 4.1-2 10.1 2.2 11.2 0 0-3.5-2.4-1.2-6 2.7-4.2 14.1-5.4 15.2-13.6 1.6-10.5-10.5-11.2-10.5-11.2z"/>
							<path id="&lt;Path&gt;" class="s5" d="m338 208.4c0.1-0.1-0.1-0.1-0.2 0-0.2 1-0.3 2.1-0.2 3.2 0.2 1.4 0.9 2.6 1.1 4 0.7 3.5-2.8 5.4-5.2 7.1-3.3 2.2-4.7 5.9-2.8 9.5 0 0.1 0.1 0.1 0 0-1.1-2.3-1-5.1 0.6-7.2 1.5-2 4-2.9 5.7-4.6 1.2-1.1 2.2-2.6 2.1-4.3-0.1-1-0.5-1.9-0.8-2.8-0.5-1.6-0.6-3.2-0.3-4.9z"/>
							<path id="&lt;Path&gt;" class="s5" d="m339.9 204.9c0 0 0 0.1 0 0.1 3 0.7 6.2 1.4 8.4 3.8 2.3 2.7 2.5 6.5 1.3 9.7-1.5 3.6-4.8 4.3-8.1 5.4-2.3 0.9-4.6 1.9-6.3 3.8 0 0.1 0.1 0.2 0.1 0.1 2.9-2.7 6.6-3.6 10.1-5 3-1.1 4.5-3.3 5-6.4 1.1-6.8-4.3-10.7-10.5-11.5z"/>
						</g>
						<g id="&lt;Group&gt;">
							<path id="&lt;Path&gt;" class="s7" d="m341.5 140.3c-1.1-0.7-2.2 1.1-1.1 1.8 1.2 0.7 2.3-1.1 1.1-1.8z"/>
							<path id="&lt;Path&gt;" class="s7" d="m342.9 141.7c-1.1-0.7-2.2 1.1-1.1 1.8 1.2 0.7 2.3-1.1 1.1-1.8z"/>
							<path id="&lt;Path&gt;" class="s7" d="m344.5 142.8c-1.1-0.7-2.2 1.1-1 1.9 1.1 0.7 2.2-1.2 1-1.9z"/>
							<path id="&lt;Path&gt;" class="s7" d="m346.3 143.7c-1.2-0.7-2.3 1.1-1.1 1.8 1.1 0.7 2.2-1.1 1.1-1.8z"/>
							<path id="&lt;Path&gt;" class="s7" d="m348.1 144.3c-1.1-0.7-2.2 1.1-1 1.8 1.1 0.7 2.2-1.1 1-1.8z"/>
							<path id="&lt;Path&gt;" class="s7" d="m350 144.6c-1.1-0.8-2.2 1.1-1 1.8 1.1 0.7 2.2-1.1 1-1.8z"/>
						</g>
					</g>
					<g id="&lt;Group&gt;">
						<path id="&lt;Path&gt;" class="s10" d="m346.8 159c0.3 1 6.2 7.9 10.8 6 1.7-0.8 1-6.4 1-6.4l1.9-9.8-12.5-7.3c0 0-1.3 17-1.2 17.5z"/>
						<path id="&lt;Path&gt;" class="s5" d="m347.6 147.9c2.9 6.6 8.5 9.3 11.1 10.2l1.8-9.2-12.5-7.4c0 0-0.2 2.9-0.4 6.4z"/>
					</g>
					<g id="&lt;Group&gt;">
						<path id="&lt;Path&gt;" class="s10" d="m369.5 133.2c2.9 16.1-6.3 19.6-9.8 20.3-3.1 0.5-13.9 2.1-18.5-13.6-4.6-15.6 2-22 9.1-23.7 7.1-1.7 16.3 1 19.2 17z"/>
						<g id="&lt;Group&gt;">
							<path id="&lt;Path&gt;" class="s5" d="m364.9 131.9c-0.4 0-0.8 0-1.2-0.1-0.4 0-0.7 0-1.1-0.3-0.2-0.2-0.2-0.5 0-0.7 0.3-0.5 0.8-0.6 1.3-0.5 0.6 0 1 0.2 1.4 0.6 0.4 0.4 0.1 1-0.4 1z"/>
							<path id="&lt;Path&gt;" class="s5" d="m353.9 133.2c0.4-0.1 0.7-0.2 1.1-0.4 0.4-0.1 0.7-0.2 1-0.5 0.1-0.2 0.1-0.6-0.1-0.7-0.4-0.4-0.9-0.4-1.4-0.2-0.6 0.1-1 0.4-1.3 0.9-0.3 0.4 0.2 1 0.7 0.9z"/>
							<g id="&lt;Group&gt;">
								<g id="&lt;Group&gt;">
									<path id="&lt;Path&gt;" class="s5" d="m356.6 137c0 0-0.1 0.1-0.1 0.2 0.2 1.1 0.2 2.3-0.7 2.8-0.1 0-0.1 0.1 0 0.1 1.2-0.3 1.1-2 0.8-3.1z"/>
									<path id="&lt;Path&gt;" class="s5" d="m355.5 136c-1.8 0.1-1.5 3.7 0.2 3.6 1.6-0.1 1.3-3.7-0.2-3.6z"/>
								</g>
								<path id="&lt;Path&gt;" class="s5" d="m354.8 136.3c-0.3 0.2-0.6 0.6-0.9 0.6-0.5 0.1-0.8-0.2-1.2-0.6q0 0 0 0.1c0 0.7 0.4 1.4 1.1 1.4 0.7 0 1.1-0.6 1.2-1.3 0-0.1-0.1-0.3-0.2-0.2z"/>
							</g>
							<g id="&lt;Group&gt;">
								<g id="&lt;Group&gt;">
									<path id="&lt;Path&gt;" class="s5" d="m363.1 136.2c0-0.1 0.1 0 0.1 0.1 0.1 1.1 0.3 2.4 1.3 2.6 0.1 0.1 0.1 0.1 0 0.1-1.2-0.1-1.5-1.8-1.4-2.8z"/>
									<path id="&lt;Path&gt;" class="s5" d="m364 135c1.8-0.3 2.2 3.2 0.6 3.5-1.6 0.2-2.1-3.3-0.6-3.5z"/>
								</g>
								<path id="&lt;Path&gt;" class="s5" d="m364.8 135.1c0.3 0.2 0.6 0.5 1 0.5 0.4-0.1 0.6-0.5 0.8-0.9q0 0 0.1 0.1c0.1 0.6-0.1 1.4-0.7 1.6-0.6 0.2-1.1-0.4-1.4-1 0-0.2 0.1-0.4 0.2-0.3z"/>
							</g>
							<path id="&lt;Path&gt;" class="s5" d="m357.6 146.3c0.3 0.2 0.6 0.6 1 0.6 0.4 0.1 0.8-0.1 1.2-0.2 0-0.1 0 0 0 0-0.3 0.4-0.9 0.7-1.4 0.6-0.5-0.1-0.7-0.5-0.9-1 0-0.1 0.1-0.1 0.1 0z"/>
							<g id="&lt;Group&gt;">
								<path id="&lt;Path&gt;" class="s5" d="m362.1 141.8c0 0 0.3 1.6 0.3 2.4 0 0.1-0.1 0.1-0.4 0.2q0 0 0 0c-1.4 0.3-2.8-0.1-3.7-1.2-0.1-0.1 0-0.2 0.1-0.1 1.1 0.7 2.2 0.8 3.4 0.8 0.1-0.3-0.6-2.8-0.5-2.9 0.5 0 1.3 0.2 1.8 0.4-0.5-3.5-1.6-6.8-2.1-10.3 0-0.1 0.1-0.1 0.2 0 1.4 3.4 2.1 7.3 2.8 10.9 0 0.4-1.6-0.1-1.9-0.2z"/>
							</g>
							<g id="&lt;Group&gt;">
								<path id="&lt;Path&gt;" class="s5" d="m361.8 144c0 0-0.6 1.1-1.6 1.6-0.3 0.2-0.7 0.3-1.2 0.2-0.8-0.1-1-0.9-0.9-1.6 0-0.5 0.2-1 0.2-1 0 0 1.4 1 3.5 0.8z"/>
								<path id="&lt;Path&gt;" class="s13" d="m360.2 145.6c-0.3 0.2-0.7 0.3-1.2 0.2-0.8-0.1-1-0.9-0.9-1.6 0.9 0 1.9 0.5 2.1 1.4z"/>
							</g>
						</g>
						<g id="&lt;Group&gt;">
							<path id="&lt;Path&gt;" class="s5" d="m357.6 120.3c0 0 0.7 2.5-0.1 4.3-1.7 3.7-6.2 2.7-7.6 4.2-1.4 1.4-0.9 4.2-2.2 5.5-1.8 1.9-4.2 1.2-4.4 2.5-0.3 1.3-0.1 4-1.7 4.5-1.6 0.5-9.9-25.2 11.7-25.6 0 0 2.8-0.4 6.6 0.7 6.2 1.8 8.4 12.1 8.4 12.1 0 0-1.4 0.1-2.2-0.6-1-0.8-1.4-1.7-2.1-2.3-1.2-0.9-1.9-0.5-3.1-1.4-1.8-1.3-3.3-3.9-3.3-3.9z"/>
							<path id="&lt;Path&gt;" class="s5" d="m357.3 119.1q0.5 1.6 0.7 3.3c0 1.1 0 2.2-0.5 3.1-0.4 0.9-1.4 1.6-2.4 1.9-1 0.4-2.1 0.5-3.1 1-0.6 0.2-1.1 0.5-1.4 1-0.4 0.5-0.5 1.1-0.7 1.7-0.2 1.1-0.4 2.1-1.1 2.9-0.7 0.8-1.7 1.3-2.8 1.2-1.1 0-2.2-0.3-3.3 0.2 1.1-0.4 2.2 0 3.3 0.1 1.1 0.1 2.3-0.4 3.1-1.2 0.8-0.9 1.1-2.1 1.3-3.1 0.1-0.6 0.3-1.1 0.6-1.5 0.2-0.4 0.7-0.7 1.2-0.9 0.9-0.4 2-0.5 3.1-0.9q0.8-0.3 1.5-0.9c0.4-0.3 0.9-0.8 1.1-1.3 0.5-1.1 0.4-2.3 0.3-3.4q-0.3-1.6-0.9-3.2z"/>
							<path id="&lt;Path&gt;" class="s5" d="m357.7 120.1q0.3 1.5 1.1 2.9c0.4 0.9 1.1 1.8 2.1 2.3 0.5 0.3 1 0.4 1.5 0.6 0.4 0.1 0.8 0.4 1.1 0.7 0.3 0.4 0.5 0.9 0.9 1.3q0.6 0.5 1.4 0.8c-0.5-0.3-0.9-0.6-1.2-1-0.3-0.4-0.5-0.8-0.8-1.3-0.3-0.5-0.8-0.8-1.3-1-0.5-0.2-0.9-0.3-1.4-0.5-0.8-0.5-1.5-1.2-2-2.1-0.5-0.8-1-1.8-1.4-2.7z"/>
						</g>
						<g id="&lt;Group&gt;">
							<g id="&lt;Group&gt;">
								<path id="&lt;Path&gt;" class="s10" d="m344.5 140c0 0-4.3-4.5-6.4-2.9-2.1 1.6 1.6 8.5 4.5 9.1 2.8 0.6 3.4-2 3.4-2z"/>
								<path id="&lt;Path&gt;" class="s5" d="m339.2 139.1c0 0 0 0 0 0 2 0.5 3.3 2.1 4.2 3.8-0.6-0.6-1.5-0.9-2.3-0.1 0 0.1 0 0.2 0.1 0.1 0.7-0.2 1.3-0.2 1.9 0.3 0.4 0.4 0.8 0.9 1.1 1.4 0.1 0.2 0.4 0 0.3-0.2q0 0 0 0c-0.3-2.4-2.7-5.5-5.3-5.3z"/>
							</g>
						</g>
					</g>
				</g>
				<g id="&lt;Group&gt;">
					<g id="&lt;Group&gt;">
						<path id="&lt;Path&gt;" class="s12" d="m365.1 164.3l-10.4 27.8c-0.4 0.8-0.1 1.6 0.8 1.7l14.7 1.6c0.9 0.1 1.9-0.5 2.3-1.3l10.4-27.8c0.4-0.8 0-1.5-0.8-1.6l-14.8-1.7c-0.8-0.1-1.8 0.5-2.2 1.3z"/>
						<path id="&lt;Path&gt;" class="s9" d="m366.9 164.5l-10.5 27.8c-0.4 0.8 0 1.5 0.8 1.6l14.8 1.7c0.8 0.1 1.8-0.5 2.2-1.3l10.4-27.8c0.4-0.8 0.1-1.6-0.7-1.6l-14.8-1.7c-0.8-0.1-1.8 0.5-2.2 1.3z"/>
						<path id="&lt;Path&gt;" class="s5" d="m370.8 166.2c-0.1 0.7-0.8 1.2-1.4 1.1-0.7-0.1-1.2-0.7-1.1-1.4 0.1-0.7 0.7-1.2 1.4-1.1 0.7 0.1 1.2 0.8 1.1 1.4z"/>
					</g>
					<g id="&lt;Group&gt;">
						<path id="&lt;Path&gt;" class="s10" d="m312.7 232.9c6.6 0.3 14.1-5.5 33.6-22.6 2.7-2.3-8.9-25.9-11.9-23.5-3.8 3-17.8 15.5-18.7 16.5-7.7 8.8-7.4 29.4-3 29.6z"/>
						<g id="&lt;Group&gt;">
							<path id="&lt;Path&gt;" class="s10" d="m327.6 194.9c0 0 5.2-8.9 9.4-12.7 5.6-5.1 12.5-7.2 15.5-8 6.1-1.4 22.1-0.8 22.7 3.9 0.5 4.1-15.7 2.6-15.7 2.6 0 0 16.8-1.2 16.5 4-0.2 5.2-19 2.3-19 2.3 0 0 17.3-0.8 16.2 4.5-0.9 4-18 2.4-18 2.4 0 0 14.9-0.7 14.2 3.5-0.8 4.6-16.7 4.1-16.7 4.1-3.5 10.2-9.4 13.6-13.8 15.6-1.1 0.4-11.3-22.2-11.3-22.2z"/>
							<g id="&lt;Group&gt;">
								<path id="&lt;Path&gt;" class="s5" d="m353.6 180.8c2-0.2 4-0.5 6-0.5q2.9-0.1 5.9 0.1c4.9 0.4 7.8 1.4 7.7 1.4-4.6-1-11.7-1-13.6-1-2 0.1-4 0-6 0 0 0 0 0 0 0z"/>
								<path id="&lt;Path&gt;" class="s5" d="m353.6 187.9c2.5-0.1 5-0.4 7.6-0.4 2.5-0.1 4.9 0.1 7.4 0.2 0.2 0 0.2 0.1 0 0.1-2.6 0-4.9 0.2-7.4 0.2-2.5 0-5.1-0.1-7.6 0 0 0 0-0.1 0-0.1z"/>
								<path id="&lt;Path&gt;" class="s5" d="m352.5 194.1c3.9-0.5 7.8-0.2 11.6 0.2 0.2 0 0.1 0.1-0.1 0.1-3.8-0.1-6.9-0.3-11.5-0.2-0.1 0-0.1-0.1 0-0.1z"/>
							</g>
						</g>
					</g>
					<g id="&lt;Group&gt;">
						<path id="&lt;Path&gt;" class="s5" d="m309.8 218.8c0.4-4.6 1.5-9.3 4-13.3 4.4-5.8 11.4-11.1 16.8-15.9 1.2-2.5 3.9-5.7 6.3-7.8 2.5-2.2 5.4-4 8.6-5-3.1 1.2-5.9 3.1-8.3 5.4-2.4 2.3-4.5 5-6.1 7.9-5.3 4.9-12.3 10.1-16.9 15.7-2.5 3.9-3.7 8.5-4.4 13z"/>
					</g>
				</g>
			</g>
		</g>
	</g>
	<g id="Speech Bubble">
		<g id="&lt;Group&gt;">
			<g id="&lt;Group&gt;">
				<path id="&lt;Path&gt;" class="s1" d="m285.7 108c1.3 12.4 12.4 21.4 24.8 20.1 5.1-0.5 9.5-2.6 13-5.8l11.3 1.7-5.7-9.8c1.4-3.4 2-7.1 1.6-10.9-1.3-12.4-12.5-21.5-24.9-20.2-12.4 1.3-21.4 12.5-20.1 24.9z"/>
				<path id="&lt;Compound Path&gt;" class="s5" d="m292.5 89.3c2.4-2.4 5.4-4.2 8.7-5.3 3.2-1.1 6.8-1.4 10.2-1 3.4 0.5 6.8 1.7 9.7 3.6 2.8 2 5.3 4.6 7 7.6 3.6 6 4.2 13.7 1.4 20.1v-0.3l5.6 9.8 0.4 0.7-0.8-0.2-11.3-1.7 0.3-0.1c-3.1 2.9-7.1 4.8-11.2 5.6q-1.6 0.2-3.1 0.3c-1.1 0.1-2.1 0-3.2-0.1-2-0.2-4.1-0.6-6.1-1.4-1.9-0.8-3.8-1.8-5.4-3.1-0.9-0.6-1.6-1.3-2.4-2-0.7-0.8-1.5-1.5-2.1-2.3-2.5-3.3-4-7.4-4.5-11.5-0.8-6.8 1.8-13.9 6.8-18.7zm-2.2 30.1c0.6 0.9 1.4 1.6 2.1 2.3 0.8 0.7 1.5 1.5 2.4 2 1.6 1.3 3.5 2.2 5.4 3 1.9 0.7 4 1.1 6.1 1.3 1 0 2 0.1 3.1 0q1.5-0.1 3-0.4c4.1-0.8 7.9-2.7 10.8-5.5l0.2-0.2 0.1 0.1 11.3 1.6-0.4 0.6-5.7-9.8-0.1-0.2 0.1-0.2c1.3-3.1 1.8-6.5 1.6-9.8-0.3-3.4-1.1-6.7-2.9-9.6-1.6-2.9-4-5.5-6.7-7.4-2.8-1.9-6-3.2-9.4-3.7-3.3-0.5-6.8-0.3-10 0.8-3.3 1-6.3 2.8-8.8 5.1-4.9 4.7-7.5 11.8-6.8 18.6 0.5 4.1 2 8.1 4.6 11.4z"/>
			</g>
			<path id="&lt;Path&gt;" class="s7" d="m305.7 118.5l-9.7-9.7 3.3-3.3 5.6 5.8 11.7-18.4 3.9 2.4z"/>
		</g>
	</g>
	<g id="Shopping bags">
		<g id="&lt;Group&gt;">
			<g id="&lt;Group&gt;">
				<g id="&lt;Group&gt;">
					<path id="&lt;Path&gt;" class="s12" d="m231.2 460.6h-107.8l15.7-109.8h76.3z"/>
					<path id="&lt;Path&gt;" class="s9" d="m215.4 350.8l-11.9 109.8h27.7z"/>
					<path id="&lt;Path&gt;" class="s5" d="m160.6 358.3l-3.4-0.7c0.1-0.1 2-9.3 4.1-18.6 2.2-10.1 12.1-14.7 20.4-13.4 6.2 1 13.1 5.9 12 16.2-1.1 11-1.9 16.2-1.9 16.5l-3.4-0.6c0 0 0.8-5.3 1.9-16.3 0.8-7.9-4.2-11.6-9.1-12.4-6.7-1-14.7 2.7-16.5 10.8-2.1 9.2-4.1 18.4-4.1 18.5z"/>
					<g id="&lt;Group&gt;">
						<path id="&lt;Path&gt;" class="s1" d="m204.9 459.7c2.2-1.6 4.5-3 6.8-4.4q3.5-2.2 7-4.2l0.3-0.2 0.3 0.2c1.9 1.4 3.7 2.8 5.4 4.2q2.7 2.1 5.3 4.4c-2-1.2-3.9-2.4-5.7-3.7-1.9-1.3-3.8-2.6-5.6-3.9h0.6q-3.5 2-7.1 4c-2.4 1.2-4.8 2.5-7.3 3.6z"/>
						<path id="&lt;Path&gt;" class="s1" d="m219 451.6c-0.5-7-0.8-14-1.2-21-0.3-7-0.5-14-0.8-21-0.2-7-0.4-14.1-0.6-21.1l-0.2-10.5c0-3.5-0.1-7-0.1-10.5 0.3 3.5 0.5 7 0.7 10.5l0.5 10.5c0.3 7 0.6 14 0.8 21 0.2 7 0.5 14 0.6 21.1 0.2 7 0.3 14 0.3 21z"/>
					</g>
					<path id="&lt;Path&gt;" class="s5" d="m163.5 358c0 2.5-2.1 4.6-4.6 4.6-2.5 0-4.6-2.1-4.6-4.6 0-2.5 2.1-4.6 4.6-4.6 2.5 0 4.6 2.1 4.6 4.6z"/>
					<path id="&lt;Path&gt;" class="s5" d="m194.3 358c0 2.5-2.1 4.6-4.6 4.6-2.5 0-4.6-2.1-4.6-4.6 0-2.5 2.1-4.6 4.6-4.6 2.5 0 4.6 2.1 4.6 4.6z"/>
				</g>
			</g>
			<g id="&lt;Group&gt;">
				<g id="&lt;Group&gt;">
					<path id="&lt;Path&gt;" class="s7" d="m176 460.6h-93.8l13.7-95.5h66.4z"/>
					<path id="&lt;Path&gt;" class="s7" d="m162.3 365.1l-10.4 95.5h24.1z"/>
					<path id="&lt;Path&gt;" class="s8" d="m162.3 365.1l-10.4 95.5h24.1z"/>
					<path id="&lt;Path&gt;" class="s5" d="m114.6 371.6l-2.9-0.6c0-0.1 1.7-8.1 3.5-16.2 1.9-8.7 10.6-12.8 17.8-11.6 5.3 0.9 11.3 5.1 10.4 14.1-1 9.6-1.7 14.1-1.7 14.3l-3-0.5c0 0 0.8-4.6 1.7-14.1 0.7-6.9-3.6-10.1-7.9-10.8-5.8-1-12.8 2.2-14.4 9.3-1.8 8.1-3.5 16.1-3.5 16.1z"/>
					<g id="&lt;Group&gt;">
						<path id="&lt;Path&gt;" class="s1" d="m153.1 459.8c2-1.3 4-2.6 6-3.9q3-1.8 6-3.6l0.3-0.1 0.3 0.2c1.6 1.2 3.1 2.3 4.7 3.6q2.3 1.8 4.6 3.8-2.6-1.5-5-3.2c-1.7-1.1-3.3-2.3-4.9-3.4h0.5q-3 1.8-6.1 3.4c-2.1 1.1-4.2 2.2-6.4 3.2z"/>
						<path id="&lt;Path&gt;" class="s1" d="m165.4 452.8c-0.4-6.1-0.7-12.2-1-18.3-0.3-6.1-0.5-12.2-0.8-18.3-0.1-6.1-0.3-12.2-0.5-18.3l-0.1-9.1c-0.1-3.1-0.1-6.1-0.1-9.2 0.2 3.1 0.4 6.1 0.5 9.1l0.5 9.2c0.3 6.1 0.5 12.2 0.7 18.3 0.2 6.1 0.4 12.2 0.5 18.3 0.2 6.1 0.3 12.2 0.3 18.3z"/>
					</g>
					<path id="&lt;Path&gt;" class="s5" d="m117.1 371.3c0 2.2-1.8 4-4 4-2.2 0-4-1.8-4-4 0-2.2 1.8-3.9 4-3.9 2.2 0 4 1.7 4 3.9z"/>
					<path id="&lt;Path&gt;" class="s5" d="m143.9 371.3c0 2.2-1.8 4-4 4-2.2 0-4-1.8-4-4 0-2.2 1.8-3.9 4-3.9 2.2 0 4 1.7 4 3.9z"/>
				</g>
			</g>
		</g>
	</g>
</svg>