<svg xmlns="http://www.w3.org/2000/svg" xmlns:xlink="http://www.w3.org/1999/xlink" data-name="Layer 2" preserveAspectRatio="xMidYMid meet" version="1.0" viewBox="-1.5 -2.9 258.0 205.8" zoomAndPan="magnify" style="fill: rgb(255, 195, 3);" original_string_length="1898"><g data-name="Layer 2" id="__id32_sgm3jnq6qp"><path d="m240.21,80.3c-12.24-21.61-28.96-40.43-48.66-55.46C172.11,10.03,146.84-2.9,121.23.57c-12.98,1.67-25.89,7.37-34.88,17.22-9.82,9.99-12.76,24.81-16.9,38.47-5.76,4.14-12.64,7-19.26,9.45-1.27.47-2.55.94-3.82,1.4-9.62,3.5-19.57,7.13-27.92,13.86C5.65,91.33-1.49,108.58.26,124.92c1.75,16.37,12.39,31.72,27.1,39.11,6.82,3.43,14.51,5.17,22.23,5.17,4.25,0,8.51-.57,12.64-1.62l6.78,35.28,5.13-1.3c36.35-9.19,73.2-9.19,109.55,0l5.13,1.3,5.99-31.17c15.84.66,31.81-5.82,42.39-17.82,19.32-21.66,16.8-49.91,2.98-73.58Zm-59.2,110.33c-34.59-7.94-69.57-7.94-104.16,0l-7.31-38.04c.11.02.22.05.33.08,14.25,3.26,28.73-2.79,38.82-12.52,12.79-1.06,26.6-1.1,41.15-.11,11.72,5.63,24.19,11.13,37.62,10.7.42,0,.83-.05,1.25-.07l-7.68,39.96Zm57.12-62.91c-4.04,19.21-21.96,33.16-41.33,33.77l2.46-12.77c12.38-4.01,23.16-13.69,26.7-25.79-13.33,15.19-33.43,21.85-52.16,14.79-9.47-3.13-18.65-8.66-28.02-12.59-6.42-2.56-13.26-4.09-20.16-4.39,12.87-14.73,29.2-25,48.14-31.47-20.81.36-41.75,10.22-56.64,24.99-5.07,4.87-9.65,9.87-14.32,14.24-18.77,19.61-46.12,17.45-61.04-6.88.38,10.92,7.31,20.96,16.8,26.66l1.82,9.49c-9.5,2.59-19.88,1.66-28.5-2.68-11.76-5.9-20.26-18.17-21.65-31.24-1.39-13.06,4.31-26.84,14.53-35.12,7.05-5.68,15.8-8.87,25.06-12.24,1.3-.47,2.59-.95,3.88-1.42,3.23-1.2,6.69-2.56,10.14-4.16-3.82,7.36-9.27,13.41-18.24,16.73,13.19,1.15,23.87-10.21,29.4-21.12,8.39-16.94,9.55-38.23,27.33-48.08,27.07-15.95,59.07-1.97,81.79,16.12,24.52,18.99,61.74,60.34,54.04,93.13Z" style="fill: inherit;"/></g></svg>