<?xml version="1.0" encoding="UTF-8"?>
<svg version="1.1" xmlns="http://www.w3.org/2000/svg" width="320" height="320">
<path d="M0 0 C0.8765625 0.68449219 1.753125 1.36898437 2.65625 2.07421875 C13.54507925 10.7372432 24.17693221 20.21160432 33 31 C34.09441406 32.24523437 34.09441406 32.24523437 35.2109375 33.515625 C46.51089244 46.56226067 56.21264972 61.09752227 63 77 C63.2695752 77.62519531 63.53915039 78.25039062 63.81689453 78.89453125 C69.61138792 92.89698431 70.80453748 109.48663842 65.4375 123.8125 C62.88338575 129.96559343 59.64451627 135.22113822 55 140 C54.35546875 140.68320313 53.7109375 141.36640625 53.046875 142.0703125 C44.21126794 150.67684826 30.71684674 157.77025536 18.19140625 158.06640625 C17.46824219 158.04449219 16.74507812 158.02257812 16 158 C16.22822003 155.55864621 16.48146395 153.12446469 16.75 150.6875 C16.811875 149.99720703 16.87375 149.30691406 16.9375 148.59570312 C17.29418061 145.51933289 17.55080154 143.47262605 19.72265625 141.1875 C22.34783133 139.81862655 24.99363133 138.54146753 27.6875 137.3125 C37.53240902 132.43201526 44.26370938 125.99264453 49 116 C49 115.34 49 114.68 49 114 C48.41734375 114.50789062 47.8346875 115.01578125 47.234375 115.5390625 C33.34232559 127.20314172 17.23354985 133.55628824 -1 132 C-13.28864161 129.79300698 -24.0596176 124.23820119 -35.17456055 118.74609375 C-47.21852424 112.82135708 -58.58672859 108.67353666 -72 107 C-57.75073134 89.28469302 -37.53891416 76.17963805 -16 69 C-48.83650983 69.79559826 -73.76690975 90.20072057 -95.5 112.71484375 C-102.51150472 119.84685871 -109.84962269 126.15080681 -119.25 129.875 C-120.20390625 130.26429688 -121.1578125 130.65359375 -122.140625 131.0546875 C-132.83983587 134.59185831 -144.13349773 134.28843782 -154.30859375 129.4921875 C-162.72510425 124.82584931 -168.97084551 118.40724694 -175 111 C-173.62712664 122.12500828 -168.63823733 130.83167252 -160 138 C-159.05125 138.556875 -158.1025 139.11375 -157.125 139.6875 C-155 141 -155 141 -154.1875 142.6875 C-153.90793181 146.13550774 -153.94234492 149.54069536 -154 153 C-162.11182328 156.90742932 -172.92507858 156.00532573 -181.375 153.375 C-196.43840133 147.52493751 -205.76942487 138.35235196 -212.40234375 123.796875 C-214.22900776 119.56670572 -215.62082673 115.61602248 -216 111 C-216.07992187 110.0925 -216.15984375 109.185 -216.2421875 108.25 C-216.85855547 94.32733531 -211.36703607 82.49543739 -202.8125 71.8125 C-192.18769237 60.28493093 -175.5564019 54.81158873 -161.1875 49.5 C-159.72703247 48.95581421 -159.72703247 48.95581421 -158.23706055 48.40063477 C-157.32738525 48.07248779 -156.41770996 47.74434082 -155.48046875 47.40625 C-154.66473389 47.11041016 -153.84899902 46.81457031 -153.00854492 46.50976562 C-151 46 -151 46 -149 47 C-154.22363231 54.19881827 -159.7473872 61.21221541 -168 65 C-159.04219927 64.51139269 -151.1924764 60.60530816 -145 54 C-137.19300884 44.21942942 -132.64459251 33.50047693 -128.625 21.75 C-121.88559925 2.67039882 -114.44706431 -13.57846948 -95.56640625 -23.24609375 C-62.64168399 -37.62761243 -25.87796401 -20.75325485 0 0 Z " fill="#FFFEFD" transform="translate(230,46)"/>
<path d="M0 0 C0.65871094 0.33547852 1.31742188 0.67095703 1.99609375 1.01660156 C16.72287921 8.66799168 29.5667748 19.11890694 42 30 C43.37865234 31.19302734 43.37865234 31.19302734 44.78515625 32.41015625 C49.28547644 36.36745138 53.44563623 40.41010491 57.3046875 44.99609375 C59.06368174 47.07527358 60.90257115 49.06174203 62.75 51.0625 C84.78277867 75.97648819 101.49946062 105.63793812 100.17919922 139.59033203 C98.89036697 156.92108726 89.6630793 172.10439687 77.1875 183.75 C65.56688791 193.32667044 51.31780884 199.2153314 36.1875 199.0625 C35.02605469 199.05347656 33.86460937 199.04445312 32.66796875 199.03515625 C31.34732422 199.01775391 31.34732422 199.01775391 30 199 C29.90203125 199.91136719 29.8040625 200.82273438 29.703125 201.76171875 C28.74846844 210.03266566 27.49482412 218.19482416 25.9375 226.375 C25.7631543 227.29627686 25.58880859 228.21755371 25.40917969 229.16674805 C24.13179777 235.73640445 24.13179777 235.73640445 23 238 C21.46859375 237.63648438 21.46859375 237.63648438 19.90625 237.265625 C10.87890588 235.16744594 1.82590438 233.35957539 -7.3125 231.8125 C-8.27671875 231.64588867 -9.2409375 231.47927734 -10.234375 231.30761719 C-24.21759957 228.99763402 -38.17579099 228.7592447 -52.3125 228.75 C-53.24341461 228.74932526 -54.17432922 228.74865051 -55.13345337 228.74795532 C-75.18800424 228.7709944 -94.06394202 230.7813877 -113.6081543 235.3737793 C-114.50445557 235.58429932 -115.40075684 235.79481934 -116.32421875 236.01171875 C-117.10885498 236.20209717 -117.89349121 236.39247559 -118.7019043 236.58862305 C-121.17753432 237.03178002 -123.49022049 237.07021721 -126 237 C-126.9811094 232.14413912 -127.95961824 227.2877639 -128.93579102 222.4309082 C-129.26777043 220.78102704 -129.60044215 219.131285 -129.93383789 217.48168945 C-130.41477564 215.10144301 -130.8931663 212.72069622 -131.37109375 210.33984375 C-131.51904892 209.61039047 -131.66700409 208.88093719 -131.81944275 208.12937927 C-132.6924002 203.76553349 -133.41030769 199.41130344 -134 195 C-134.97582031 195.15984375 -135.95164062 195.3196875 -136.95703125 195.484375 C-154.56983134 197.97963229 -170.73209131 195.21463489 -185.66015625 185.21875 C-199.90377491 174.47549512 -208.50210254 159.65180869 -211 142 C-212.32632451 125.78936713 -208.83637635 109.45170922 -198.37890625 96.6640625 C-185.04659131 81.2754035 -168.0821419 74.63930273 -149.40087891 67.66357422 C-142.29572063 64.98019312 -135.66353859 62.03529314 -129.125 58.1796875 C-127 57 -127 57 -125 57 C-124.83890747 56.09773682 -124.83890747 56.09773682 -124.67456055 55.17724609 C-120.52602872 33.10714201 -112.47732627 12.90538411 -93.875 -0.75 C-64.95373977 -20.43924781 -29.46086871 -15.02402187 0 0 Z M-96 19 C-104.55653737 28.76900218 -108.36412557 41.45072792 -112.72607422 53.46313477 C-118.52853737 69.43487949 -124.69163209 84.30422843 -141 92 C-144.8110841 93.55266389 -146.85350496 94 -151 94 C-150.45472656 93.68289062 -149.90945312 93.36578125 -149.34765625 93.0390625 C-142.47664459 88.787257 -134.63770221 82.91310664 -132 75 C-154.40796998 81.45055268 -179.88599899 89.12191247 -192.49609375 110.1875 C-199.19410292 122.71364702 -200.98851409 135.09575692 -197.09765625 148.921875 C-192.07126634 163.01723176 -183.4983872 173.44022247 -170 180 C-160.70086937 184.25823243 -148.95969376 186.39611007 -139.02734375 182.9765625 C-138.02380859 182.49316406 -138.02380859 182.49316406 -137 182 C-136.979375 180.7625 -136.95875 179.525 -136.9375 178.25 C-136.92589844 177.55390625 -136.91429687 176.8578125 -136.90234375 176.140625 C-137.00552596 173.87887087 -137.19566929 172.12169399 -138 170 C-139.60482066 168.50617104 -139.60482066 168.50617104 -141.625 167.25 C-149.50469832 161.61559206 -155.37105799 154.50969875 -157.4609375 144.875 C-157.70218455 143.25799275 -157.86136038 141.62901555 -158 140 C-157.62230469 140.556875 -157.24460938 141.11375 -156.85546875 141.6875 C-149.73559176 151.55861752 -139.85493527 158.84258198 -128 162 C-114.73609876 163.56222619 -101.97881922 160.61360556 -91 153 C-84.75124677 147.86679601 -79.1006746 142.14950818 -73.4765625 136.34765625 C-64.29469965 126.90718882 -55.5306467 118.45203471 -44 112 C-43.05592285 111.45811035 -43.05592285 111.45811035 -42.09277344 110.90527344 C-28.88691504 103.4301341 -14.28794261 98.37041271 1 98 C-0.50626953 98.63615234 -0.50626953 98.63615234 -2.04296875 99.28515625 C-22.33356959 107.94334426 -40.89969326 118.61708217 -55 136 C-54.01902344 136.14695313 -53.03804687 136.29390625 -52.02734375 136.4453125 C-38.82413126 138.57289134 -27.55500045 143.23341742 -15.61499023 149.09838867 C3.30326068 158.36210638 19.99017841 164.81849091 41 158 C41.97710937 157.68289062 42.95421875 157.36578125 43.9609375 157.0390625 C52.51652795 153.87282037 59.06101094 148.76383769 66 143 C64.35750309 151.36351874 57.81891482 158.29120669 51 163 C47.11050552 165.28182276 43.11709727 167.35674358 39.09765625 169.3984375 C36.20159551 170.69728212 36.20159551 170.69728212 35 172 C34.60056824 174.52195967 34.24920152 177.02963656 33.9375 179.5625 C33.84662109 180.27341797 33.75574219 180.98433594 33.66210938 181.71679688 C33.43760497 183.47738403 33.21831603 185.23863478 33 187 C47.45473956 186.6410787 60.8616668 180.00494937 71.3125 170.1875 C82.06044565 158.73621231 85.66556959 145.73404081 85.53857422 130.35205078 C85.24215196 121.5800373 83.47571813 114.03053267 80 106 C79.71592285 105.34338379 79.4318457 104.68676758 79.13916016 104.01025391 C71.38205435 86.59986087 60.08771088 71.51645506 47.28125 57.50390625 C45.76460508 55.83923263 44.26436472 54.15945899 42.78125 52.46484375 C37.54882653 46.50467124 32.04678081 41.1306019 26 36 C25.19997559 35.31550781 25.19997559 35.31550781 24.38378906 34.6171875 C-7.53758066 7.49943106 -61.26729366 -18.03208411 -96 19 Z " fill="#FFC407" transform="translate(213,17)"/>
<path d="M0 0 C0.81078506 -0.0033284 1.62157013 -0.0066568 2.45692444 -0.01008606 C4.16032347 -0.01511597 5.86373222 -0.01749561 7.56713867 -0.01733398 C10.14974406 -0.01952243 12.73192292 -0.03772549 15.31445312 -0.05664062 C16.98046731 -0.05957514 18.6464835 -0.06155955 20.3125 -0.0625 C21.07215561 -0.06968552 21.83181122 -0.07687103 22.61448669 -0.08427429 C30.94238301 -0.04938079 37.87050323 1.71443314 45.28515625 5.54296875 C57.49184466 11.52587777 69.70606113 13.64381924 83.22265625 14.16796875 C81.84774496 23.86437207 80.06629536 33.44879917 78.13598633 43.04736328 C77.65270631 45.45508469 77.17675262 47.86418481 76.70117188 50.2734375 C76.39496572 51.80607645 76.08834136 53.33863192 75.78125 54.87109375 C75.63956894 55.59073303 75.49788788 56.31037231 75.35191345 57.05181885 C74.33738294 62.05324206 74.33738294 62.05324206 73.22265625 63.16796875 C63.84452497 62.9003897 54.36785111 60.96149676 45.09765625 59.62890625 C14.42961017 55.30309764 -17.5419259 55.97032102 -47.87890625 62.6171875 C-50.60611852 63.13543134 -53.01354142 63.20899803 -55.77734375 63.16796875 C-58.86555209 47.85083666 -61.88703946 32.52371949 -64.77734375 17.16796875 C-63.20146484 17.20277344 -63.20146484 17.20277344 -61.59375 17.23828125 C-50.53732421 17.44649697 -50.53732421 17.44649697 -39.77734375 15.16796875 C-38.99359375 14.92304688 -38.20984375 14.678125 -37.40234375 14.42578125 C-29.60735639 11.67317634 -22.62432005 7.01494505 -16.77734375 1.16796875 C-11.17601896 0.20554575 -5.67294847 0.00828825 0 0 Z " fill="#FFFEFD" transform="translate(152.77734375,175.83203125)"/>
<path d="M0 0 C5.31134617 4.7211966 5.56033497 14.27940591 6 21 C6.5823099 32.11934614 6.5823099 32.11934614 4.734375 34.9140625 C3 36 3 36 0.8125 35.6875 C0.214375 35.460625 -0.38375 35.23375 -1 35 C-2.86094772 27.6802723 -3.55761615 20.53216715 -4 13 C-4.33773437 13.91523438 -4.67546875 14.83046875 -5.0234375 15.7734375 C-5.46945313 16.96195312 -5.91546875 18.15046875 -6.375 19.375 C-6.81585938 20.55835938 -7.25671875 21.74171875 -7.7109375 22.9609375 C-9 26 -9 26 -11 28 C-13.625 28.125 -13.625 28.125 -16 28 C-17.17154293 25.71070947 -18.33738074 23.41881638 -19.5 21.125 C-19.83386719 20.47402344 -20.16773438 19.82304687 -20.51171875 19.15234375 C-23 14.2265625 -23 14.2265625 -23 12 C-23.66 12 -24.32 12 -25 12 C-24.97679687 12.64324219 -24.95359375 13.28648437 -24.9296875 13.94921875 C-24.78011306 21.43862472 -25.46252462 28.660519 -27 36 C-28 37 -28 37 -30.5 37.125 C-33 37 -33 37 -34 36 C-34.80215555 28.22829626 -33.83337126 20.95059026 -32.1875 13.375 C-31.93963745 12.20239624 -31.93963745 12.20239624 -31.68676758 11.00610352 C-30.78982913 7.14610251 -30.12950738 4.50331578 -27 2 C-24.55078125 2.00390625 -24.55078125 2.00390625 -22 3 C-19.98046875 5.21484375 -19.98046875 5.21484375 -18.1875 7.9375 C-17.58292969 8.83339844 -16.97835937 9.72929687 -16.35546875 10.65234375 C-15 13 -15 13 -15 15 C-14.34 15 -13.68 15 -13 15 C-12.88527344 14.27296875 -12.77054688 13.5459375 -12.65234375 12.796875 C-11.98116051 9.91922709 -11.01226486 7.81397584 -9.5625 5.25 C-9.13066406 4.47140625 -8.69882813 3.6928125 -8.25390625 2.890625 C-6.08730095 -0.37615682 -3.72578021 -0.45436344 0 0 Z " fill="#FFC50D" transform="translate(172,264)"/>
<path d="M0 0 C2.5 0.4375 2.5 0.4375 4.05078125 2 C5.92802862 5.15741875 6.56869139 8.30423256 7.1875 11.875 C7.31342529 12.57713623 7.43935059 13.27927246 7.5690918 14.00268555 C10.34884046 30.66423931 10.34884046 30.66423931 6.5 36.4375 C4.85 36.1075 3.2 35.7775 1.5 35.4375 C-0.16594452 28.12675318 -1.01172287 20.91584967 -1.5 13.4375 C-1.88671875 14.50871094 -2.2734375 15.57992188 -2.671875 16.68359375 C-3.19708978 18.08104022 -3.72317694 19.47815904 -4.25 20.875 C-4.50265625 21.58205078 -4.7553125 22.28910156 -5.015625 23.01757812 C-6.96110858 28.10015397 -6.96110858 28.10015397 -9.453125 29.66015625 C-11.5 29.4375 -11.5 29.4375 -13.578125 27.8515625 C-15.63654573 25.26598524 -16.92899106 22.83777357 -18.25 19.8125 C-18.89195313 18.37003906 -18.89195313 18.37003906 -19.546875 16.8984375 C-20.5 14.4375 -20.5 14.4375 -20.5 12.4375 C-21.16 12.4375 -21.82 12.4375 -22.5 12.4375 C-22.48839844 13.10394531 -22.47679688 13.77039063 -22.46484375 14.45703125 C-22.28704342 32.61806513 -22.28704342 32.61806513 -25.5 37.4375 C-28.0625 37.6875 -28.0625 37.6875 -30.5 37.4375 C-32.10770123 35.82979877 -31.7096774 34.16868388 -31.75 31.9375 C-31.69554465 26.74382104 -31.08981605 21.73923599 -30.25 16.625 C-30.14075195 15.90828125 -30.03150391 15.1915625 -29.91894531 14.453125 C-29.0507525 9.55843166 -27.50936776 6.39817617 -24.5 2.4375 C-22.375 2.4375 -22.375 2.4375 -19.5 3.4375 C-16.14900905 7.01789864 -13.59608524 11.01684629 -11.5 15.4375 C-11.10167969 14.60605469 -10.70335938 13.77460938 -10.29296875 12.91796875 C-9.76316406 11.83128906 -9.23335937 10.74460937 -8.6875 9.625 C-8.16542969 8.54605469 -7.64335938 7.46710938 -7.10546875 6.35546875 C-3.99316743 0.6988043 -3.99316743 0.6988043 0 0 Z " fill="#FFC50D" transform="translate(101.5,263.5625)"/>
<path d="M0 0 C2.625 -0.375 2.625 -0.375 5 0 C5.33 0.33 5.66 0.66 6 1 C5.75957062 7.96283483 2.60661705 13.59987787 -0.4375 19.75 C-0.94087891 20.79027344 -1.44425781 21.83054687 -1.96289062 22.90234375 C-5.65465561 30.48198342 -5.65465561 30.48198342 -8 34 C-10.625 34.1875 -10.625 34.1875 -13 34 C-14.20247126 30.39258622 -14.05908994 29.13541445 -12.5 25.5625 C-10.28686922 20.3063144 -11.55389869 17.06475068 -13.5625 12 C-14.9280693 8.55293185 -15.28041833 5.73891112 -15 2 C-13.68 2 -12.36 2 -11 2 C-9.68 4.64 -8.36 7.28 -7 10 C-4.89472159 7.45914674 -3.06867738 5.13436879 -1.5625 2.1875 C-1.046875 1.465625 -0.53125 0.74375 0 0 Z " fill="#FFC40B" transform="translate(128,279)"/>
<path d="M0 0 C3.42684956 1.02472783 5.01738209 2.70655767 7.01171875 5.6015625 C7.19921875 8.7265625 7.19921875 8.7265625 6.01171875 11.6015625 C2.94921875 13.4765625 2.94921875 13.4765625 0.01171875 14.6015625 C1.33171875 15.5915625 2.65171875 16.5815625 4.01171875 17.6015625 C3.63671875 19.5390625 3.63671875 19.5390625 3.01171875 21.6015625 C-0.05257901 23.13371138 -2.60484545 22.83094798 -5.98828125 22.6015625 C-9.15279014 21.26543652 -10.56909344 20.32017018 -12.30078125 17.3515625 C-13.56291134 12.30304214 -13.71141467 8.92315117 -11.17578125 4.2890625 C-7.66195689 -0.02792171 -5.51176564 -0.87617716 0 0 Z " fill="#FFC715" transform="translate(193.98828125,276.3984375)"/>
<path d="M0 0 C3.52059343 3.52059343 4.25630578 6.42542893 4.375 11.25 C4.30769231 15.69230769 4.30769231 15.69230769 2 18 C0 17.9375 0 17.9375 -2 17 C-3.69782428 13.78306979 -4.31578427 10.54602241 -5 7 C-5.37511719 7.78246094 -5.75023437 8.56492187 -6.13671875 9.37109375 C-6.90435547 10.88896484 -6.90435547 10.88896484 -7.6875 12.4375 C-8.43580078 13.95150391 -8.43580078 13.95150391 -9.19921875 15.49609375 C-11 18 -11 18 -13.64453125 18.91015625 C-14.42183594 18.93980469 -15.19914063 18.96945312 -16 19 C-17 18 -17 18 -17.09765625 14.18359375 C-17.09098089 12.60153318 -17.07901875 11.01948841 -17.0625 9.4375 C-17.05798828 8.63119141 -17.05347656 7.82488281 -17.04882812 6.99414062 C-17.03700518 4.99606244 -17.01906914 2.99802217 -17 1 C-15.35 0.67 -13.7 0.34 -12 0 C-12 0.66 -12 1.32 -12 2 C-11.319375 1.484375 -10.63875 0.96875 -9.9375 0.4375 C-6.0507849 -1.46450952 -4.11088021 -1.2706357 0 0 Z " fill="#FFC40A" transform="translate(222,280)"/>
<path d="M0 0 C3.875 0.875 3.875 0.875 5 2 C5.15582303 3.34015221 5.25044142 4.68758903 5.31640625 6.03515625 C5.35830078 6.84404297 5.40019531 7.65292969 5.44335938 8.48632812 C5.48267578 9.33646484 5.52199219 10.18660156 5.5625 11.0625 C5.60568359 11.91650391 5.64886719 12.77050781 5.69335938 13.65039062 C5.79976702 15.76672037 5.90041731 17.88333813 6 20 C3.10765685 20.82638376 1.11257569 21 -2 21 C-3.7325 21.3403125 -3.7325 21.3403125 -5.5 21.6875 C-9 22 -9 22 -11.375 20.75 C-14.25706631 17.64623628 -14.16031662 14.54488683 -14.1875 10.5 C-14.20167969 9.5409375 -14.21585938 8.581875 -14.23046875 7.59375 C-14 5 -14 5 -12 2 C-10.68 2.33 -9.36 2.66 -8 3 C-7.67 6.96 -7.34 10.92 -7 15 C-6.34 15 -5.68 15 -5 15 C-4.80664062 14.16855469 -4.61328125 13.33710938 -4.4140625 12.48046875 C-4.15367187 11.39378906 -3.89328125 10.30710937 -3.625 9.1875 C-3.24214844 7.56908203 -3.24214844 7.56908203 -2.8515625 5.91796875 C-2 3 -2 3 0 0 Z " fill="#FFC50C" transform="translate(244,277)"/>
<path d="M0 0 C-2.6855594 2.6855594 -5.37621328 3.06049974 -9 4 C-9 3.34 -9 2.68 -9 2 C-10.32 1.67 -11.64 1.34 -13 1 C-8.60563789 0.14256349 -4.47427924 -0.08948558 0 0 Z " fill="#FFD34A" transform="translate(216,114)"/>
</svg>
