<?xml version="1.0" encoding="UTF-8" standalone="yes"?>
<svg version="1.1" id="Layer_1" xmlns="http://www.w3.org/2000/svg" xmlns:xlink="http://www.w3.org/1999/xlink" x="0px" y="0px" viewBox="0 0 214.81067 315" style="enable-background:new 0 0 214.81067 315;" xml:space="preserve">
      <style type="text/css">.st0{fill:#F2F2F2;}	.st1{fill:#FF5B00;}	.st2{fill:#FFC303;}</style>
    <g id="color_index_3" fill="#F2F2F2">
              <path d="M39.89788,163.26093c0,0-24.82381,6.0793-32.92955,27.13974&#x9;&#x9;c-5.06986,13.17258-2.03501,31.26192,7.80547,41.38048l77.83101,78.20757l74.20064-72.42815&#x9;&#x9;c10.74747-10.49074,16.03291-25.55569,13.53113-40.36464c-1.94272-11.4996-8.65327-23.82651-25.83405-32.54779&#x9;&#x9;C154.50253,164.64813,89.35845,178.69766,39.89788,163.26093z"/>
          </g>
    <g id="color_index_2" fill="#FF5B00">
              <polygon points="180.2462,190.66901 209.38698,208.7578 177.88344,225.48044 &#x9;"/>
          </g>
    <g id="color_index_1" fill="#FFC303">
              <path d="M26.98143,161.18213v-40.01185c0,0-18.29127-17.10165-12.91646-36.98327&#x9;&#x9;c5.37482-19.88161,23.71567-29.42054,42.04812-23.34206c0,0-15.06521-42.84782,25.63045-53.49383&#x9;&#x9;c36.70029-9.60081,46.67931,16.03404,49.51464,28.32042c2.83531,12.28638,0,24.57277,0,24.57277&#x9;&#x9;s30.56012-1.97921,38.74936,17.32695c10.94183,25.79543-9.45107,43.09306-11.34128,43.59901s0.63007,38.94028,0.63007,38.94028&#x9;&#x9;c-15.39735,4.88623-37.59182,10.10304-64.63975,10.49525C66.20918,171.01834,42.87053,165.94217,26.98143,161.18213z"/>
          </g>
    <g id="color_index_0" fill="#000000">
              <path d="M211.79567,204.14868l-30.30914-19.36102c-3.8499-8.35159-10.42574-15.7424-18.36337-20.54655&#x9;&#x9;c1.41954-1.92378,2.24811-4.28458,2.24811-6.78572v-35.54743c0-0.06693-0.00958-0.13194-0.01128-0.19857&#x9;&#x9;c9.43819-8.41917,14.26254-21.00014,12.70148-33.81396c-2.45398-20.36167-20.11917-35.06989-40.66632-33.95828&#x9;&#x9;c0.54898-2.83629,0.82553-5.73273,0.82553-8.66986c0-12.85295-5.49156-25.1469-15.06715-33.72948&#x9;&#x9;C113.59209,2.96818,100.72911-1.14061,87.86496,0.274C66.71658,2.61969,49.91818,19.71057,47.92157,40.92263&#x9;&#x9;c-0.40864,4.43429-0.19636,8.79074,0.62269,13.00862c-16.21234-1.09942-32.79206,8.73407-38.23985,24.10319&#x9;&#x9;c-5.95703,15.94266-1.8001,32.9714,10.28031,43.69558c-0.00133,0.05933-0.0101,0.1172-0.0101,0.17676v35.54801&#x9;&#x9;c0,2.50417,0.82273,4.86592,2.23233,6.78706C8.69067,172.80324-0.10328,188.51741,0,205.08743&#x9;&#x9;c0,12.84056,4.96971,24.88155,13.99395,33.90579l73.92113,73.92172c1.3922,1.39041,3.21957,2.08624,5.04813,2.08505&#x9;&#x9;c1.82855,0,3.6577-0.69464,5.05049-2.08624l73.93764-73.92053c1.77415-1.77386,3.3855-3.66794,4.83931-5.65799l34.49437-17.88737&#x9;&#x9;c2.0656-1.06966,3.41415-3.1783,3.51912-5.50276C214.90851,207.62064,213.75571,205.39995,211.79567,204.14868z&#x9;&#x9; M92.98267,164.64813c-23.9027,0-46.20211-2.42471-61.18316-6.65321c-0.20638-0.05779-0.35616-0.28539-0.35616-0.54013v-31.4174&#x9;&#x9;c16.25297,3.83047,38.36014,6.00162,61.53932,6.00162c23.18272,0,45.28281-2.17056,61.51986-5.99985v31.41623&#x9;&#x9;c0,0.26476-0.17572,0.49178-0.43753,0.56549C139.10045,162.23285,116.83643,164.64813,92.98267,164.64813z M20.48441,81.84191&#x9;&#x9;c3.02558-8.08373,10.00486-14.14432,18.66529-16.21228c5.19378-1.23534,10.2478-1.17107,14.90617,0.15508&#x9;&#x9;c2.11749,0.65512,4.37709,0.05425,5.89312-1.56674c1.49539-1.59976,1.95356-3.95371,1.13393-6.08358&#x9;&#x9;c-2.07091-5.12597-2.85752-10.58097-2.33979-16.20343c1.51544-16.09788,14.26697-29.07407,30.31355-30.85369&#x9;&#x9;c19.88299-2.71245,38.68703,14.23555,38.29527,34.19002c0,4.46554-0.83733,8.80018-2.46834,12.83526&#x9;&#x9;c-0.84028,2.02079-0.44225,4.38299,1.01422,6.01695c3.32712,3.85846,8.34857,0.41236,12.48088,0.65335&#x9;&#x9;c14.69684-0.56078,27.13171,9.93882,28.89363,24.43576c1.16835,9.59225-2.59976,19.00191-9.90013,25.05631&#x9;&#x9;c-0.54359,0.02705-1.08955,0.1068-1.6302,0.25215c-15.61554,4.2285-38.49045,6.65321-62.75933,6.65321&#x9;&#x9;c-24.26417,0-47.14675-2.4253-62.78057-6.65379c-0.53991-0.14639-1.08543-0.22665-1.62873-0.254&#x9;&#x9;C20.66831,107.64231,15.37326,95.52025,20.48441,81.84191z M92.96439,302.59341L21.67966,231.3087&#x9;&#x9;c-6.97162-6.97221-10.81094-16.28423-10.81094-26.22127c-0.18511-15.50259,10.0743-29.99638,24.73332-34.94281&#x9;&#x9;c15.41483,3.43665,35.83629,5.37222,57.38063,5.37222c21.52561,0,41.93653-1.93277,57.33862-5.36366&#x9;&#x9;c5.21043,1.79509,10.01245,4.77872,13.94553,8.71179c6.97162,6.97221,10.81093,16.28775,10.81093,26.23189&#x9;&#x9;c0,9.93115-3.83931,19.23962-10.81152,26.21184L92.96439,302.59341z M184.43605,217.12744&#x9;&#x9;c1.38077-5.35048,1.83109-11.1646,1.28406-16.73929l13.88834,8.87175L184.43605,217.12744z"/>
        <path d="M137.37155,183.02919c-10.67178,0-19.35402,8.68225-19.35402,19.35402c0,10.67296,8.68224,19.35521,19.35402,19.35521&#x9;&#x9;c10.67236,0,19.35461-8.68225,19.35461-19.35521C156.72617,191.71144,148.04391,183.02919,137.37155,183.02919z&#x9;&#x9; M137.37155,210.86969c-4.679,0-8.48529-3.80688-8.48529-8.48648c0-4.67841,3.80629-8.48529,8.48529-8.48529&#x9;&#x9;s8.48589,3.80688,8.48589,8.48529C145.85744,207.06281,142.05055,210.86969,137.37155,210.86969z"/>
          </g>
  </svg>